<svg width="23" height="36" viewBox="0 0 23 36" fill="none" xmlns="http://www.w3.org/2000/svg">
<path d="M7.3125 1.29343V1.14407C7.3125 0.51222 7.82472 0 8.45658 0H14.2934C14.9253 0 15.4375 0.51222 15.4375 1.14407V1.29343C15.4375 2.37401 14.5615 3.25 13.4809 3.25H9.26908C8.18849 3.25 7.3125 2.37401 7.3125 1.29343ZM18.4627 0.174361C20.924 0.799733 22.75 3.03435 22.75 5.6875V30.0625C22.75 33.2036 20.2036 35.75 17.0625 35.75H5.6875C2.54638 35.75 0 33.2036 0 30.0625V5.6875C0 3.03435 1.82601 0.799733 4.28732 0.174361C4.99935 -0.00655387 5.6875 0.558763 5.6875 1.29342C5.6875 3.27147 7.29103 4.875 9.26908 4.875H13.4809C15.459 4.875 17.0625 3.27147 17.0625 1.29343C17.0625 0.558767 17.7506 -0.00655384 18.4627 0.174361ZM5.6875 17.0625C5.6875 16.6138 5.3237 16.25 4.875 16.25C4.4263 16.25 4.0625 16.6138 4.0625 17.0625V18.6875C4.0625 19.1362 4.4263 19.5 4.875 19.5C5.3237 19.5 5.6875 19.1362 5.6875 18.6875V17.0625ZM8.9375 17.875C8.9375 18.3237 9.3013 18.6875 9.75 18.6875H13C13.4487 18.6875 13.8125 18.3237 13.8125 17.875C13.8125 17.4263 13.4487 17.0625 13 17.0625H9.75C9.3013 17.0625 8.9375 17.4263 8.9375 17.875ZM7.3125 21.125C7.7612 21.125 8.125 20.7612 8.125 20.3125V15.4375C8.125 14.9888 7.7612 14.625 7.3125 14.625C6.8638 14.625 6.5 14.9888 6.5 15.4375V20.3125C6.5 20.7612 6.8638 21.125 7.3125 21.125ZM15.4375 31.6875C15.4375 31.2388 15.0737 30.875 14.625 30.875H8.125C7.6763 30.875 7.3125 31.2388 7.3125 31.6875C7.3125 32.1362 7.6763 32.5 8.125 32.5H14.625C15.0737 32.5 15.4375 32.1362 15.4375 31.6875ZM16.25 15.4375C16.25 14.9888 15.8862 14.625 15.4375 14.625C14.9888 14.625 14.625 14.9888 14.625 15.4375V20.3125C14.625 20.7612 14.9888 21.125 15.4375 21.125C15.8862 21.125 16.25 20.7612 16.25 20.3125V15.4375ZM18.6875 17.0625C18.6875 16.6138 18.3237 16.25 17.875 16.25C17.4263 16.25 17.0625 16.6138 17.0625 17.0625V18.6875C17.0625 19.1362 17.4263 19.5 17.875 19.5C18.3237 19.5 18.6875 19.1362 18.6875 18.6875V17.0625Z" fill="white"/>
</svg>
