<svg width="28" height="28" viewBox="0 0 28 28" fill="none" xmlns="http://www.w3.org/2000/svg">
<path d="M10.309 12.5988H7.93408V10.1817H10.309C10.309 10.1817 11.7134 10.149 11.7134 11.391C11.7134 12.6331 10.309 12.5988 10.309 12.5988Z" fill="white"/>
<path d="M12.1269 15.6747C12.1269 17.1555 10.4541 17.1181 10.4541 17.1181H7.93408V14.2345H10.4494C10.4494 14.2345 12.1269 14.1986 12.1269 15.6747Z" fill="white"/>
<path d="M18.9224 12.619C18.0658 12.619 17.362 13.2603 17.2216 14.2652H20.6233C20.4891 13.2634 19.7775 12.619 18.9224 12.619ZM18.9224 12.619C18.0658 12.619 17.362 13.2603 17.2216 14.2652H20.6233C20.4891 13.2634 19.7775 12.619 18.9224 12.619ZM24.181 0H4.20785C3.21463 0 2.26208 0.394557 1.55976 1.09687C0.857448 1.79919 0.462891 2.75174 0.462891 3.74496L0.462891 23.7181C0.462891 24.7113 0.857448 25.6639 1.55976 26.3662C2.26208 27.0685 3.21463 27.4631 4.20785 27.4631H24.181C25.1742 27.4631 26.1268 27.0685 26.8291 26.3662C27.5314 25.6639 27.926 24.7113 27.926 23.7181V3.74496C27.926 2.75174 27.5314 1.79919 26.8291 1.09687C26.1268 0.394557 25.1742 0 24.181 0ZM16.7628 9.05033H21.0602V10.1208H16.7628V9.05033ZM12.6637 18.5266C12.0723 18.8184 11.3295 18.9105 10.6351 18.9105H5.61222V8.36063H11.1345C11.8179 8.36063 13.9338 8.7679 13.9432 10.8011C13.9432 12.2055 13.163 12.8483 12.4905 13.1573C12.4905 13.1573 14.2444 13.6785 14.3848 15.2295C14.5252 16.7806 14.2475 17.7449 12.6637 18.5266ZM22.7532 15.6165H17.2216C17.1685 16.8352 18.0595 17.5623 19.0722 17.5623C19.4246 17.5631 19.7705 17.4679 20.0729 17.287C20.3753 17.1062 20.6227 16.8464 20.7887 16.5356H22.6003C22.1025 18.3488 20.6436 19.104 18.9193 19.104C16.6614 19.104 15.0558 17.2939 15.0558 15.0594C15.0558 12.8249 16.7862 11.0133 18.9193 11.0133C21.0524 11.0133 22.7766 12.8249 22.7766 15.0594C22.7766 15.2529 22.7766 15.4371 22.7532 15.6165ZM18.9224 12.619C18.0658 12.619 17.362 13.2603 17.2216 14.2652H20.6233C20.4891 13.2634 19.7775 12.619 18.9224 12.619Z" fill="white"/>
</svg>
