<svg width="39" height="39" viewBox="0 0 39 39" fill="none" xmlns="http://www.w3.org/2000/svg">
<path d="M29.986 28.5739L24.8457 32.7323H33.4285V31.2746L30.0856 28.5725C30.0714 28.5612 30.0537 28.5552 30.0356 28.5554C30.0174 28.5557 29.9999 28.5622 29.986 28.5739Z" fill="white"/>
<path d="M0 4.87514V5.57157C0 5.75627 0.0733735 5.93341 0.203979 6.06402C0.334585 6.19462 0.511724 6.268 0.696429 6.268H7.43716C7.1363 4.91693 6.59587 4.17871 6.26786 4.17871H0.696429C0.511724 4.17871 0.334585 4.25208 0.203979 4.38269C0.0733735 4.5133 0 4.69044 0 4.87514Z" fill="white"/>
<path d="M21.5895 22.2857C21.5898 21.7958 21.4587 21.3148 21.2099 20.8928H17.0669C17.5477 22.1933 17.8551 23.5514 17.9813 24.9321C18.3971 25.071 18.8401 25.1081 19.2732 25.0403C19.7063 24.9725 20.1168 24.8018 20.4702 24.5426C20.8237 24.2833 21.1098 23.9431 21.3046 23.5504C21.4993 23.1577 21.597 22.724 21.5895 22.2857Z" fill="white"/>
<path d="M38.3038 24.3749C38.4885 24.3749 38.6657 24.3016 38.7963 24.171C38.9269 24.0403 39.0002 23.8632 39.0002 23.6785V22.9821C39.0002 22.7974 38.9269 22.6202 38.7963 22.4896C38.6657 22.359 38.4885 22.2856 38.3038 22.2856H37.0161C37.2199 22.9694 37.3703 23.6679 37.466 24.3749H38.3038Z" fill="white"/>
<path d="M12.5357 26.4642C12.5357 30.0584 11.342 33.1311 9.52783 34.8213H13.9286V27.1606C13.9286 23.0719 12.7314 20.3579 10.3663 19.0396C11.8561 21.2229 12.6156 23.8222 12.5357 26.4642Z" fill="white"/>
<path d="M6.26786 12.5356C6.75884 12.5356 7.66071 10.9492 7.66071 8.35707C7.66071 8.11472 7.65305 7.88257 7.63773 7.66064H4.89798C4.88266 7.88304 4.875 8.11518 4.875 8.35707C4.875 10.9492 5.78036 12.5356 6.26786 12.5356Z" fill="white"/>
<path d="M8.95719 6.87793C9.02387 7.36814 9.05599 7.86243 9.05329 8.35714C9.05329 11.1261 8.0964 13.9286 6.26758 13.9286C4.43876 13.9286 3.48186 11.1261 3.48186 8.35714C3.48186 8.11687 3.49092 7.88636 3.50345 7.66071H1.42392C1.41277 7.89332 1.39258 8.12175 1.39258 8.35714C1.39258 12.8839 3.62533 16.7143 6.26758 16.7143C8.90983 16.7143 11.1426 12.8839 11.1426 8.35714C11.1426 3.83036 8.90983 0 6.26758 0C4.88865 0 3.58633 1.02723 2.66147 2.78571H6.26758C7.59079 2.78571 8.64727 4.39237 8.95719 6.87793Z" fill="white"/>
<path d="M11.4995 18.1072C13.9983 19.7556 15.3215 22.8338 15.3215 27.1607V38.3036C15.3215 38.4883 15.3949 38.6654 15.5255 38.7961C15.6561 38.9267 15.8332 39 16.0179 39H35.5179C35.7026 39 35.8798 38.9267 36.0104 38.7961C36.141 38.6654 36.2144 38.4883 36.2144 38.3036V26.4643C36.2144 21.9341 33.9816 18.1072 31.3394 18.1072H11.4995ZM34.8215 26.4643V36.2143C34.8215 36.5837 34.6748 36.938 34.4136 37.1992C34.1523 37.4604 33.7981 37.6072 33.4287 37.6072H18.1072C17.7378 37.6072 17.3835 37.4604 17.1223 37.1992C16.8611 36.938 16.7144 36.5837 16.7144 36.2143V27.1607C16.7528 25.1926 16.4325 23.2339 15.7693 21.3804C15.6891 21.1703 15.6612 20.9439 15.688 20.7206C15.7148 20.4973 15.7956 20.2839 15.9233 20.0988C16.051 19.9137 16.2218 19.7625 16.4211 19.6582C16.6203 19.5539 16.8419 19.4996 17.0668 19.5H31.3394C32.9829 19.5 34.8215 22.478 34.8215 26.4643Z" fill="white"/>
<path d="M23.8469 28.573C23.8328 28.5612 23.8149 28.5547 23.7964 28.5547C23.778 28.5547 23.7601 28.5612 23.7459 28.573L18.6035 32.7321H22.6303L25.8122 30.1588L23.8469 28.573Z" fill="white"/>
<path d="M22.7414 20.8928C22.9654 21.5229 23.0346 22.1976 22.9434 22.8601C22.8521 23.5225 22.603 24.1533 22.2171 24.6994C21.8311 25.2455 21.3196 25.6909 20.7256 25.998C20.1316 26.3051 19.4725 26.465 18.8038 26.4643C18.5604 26.462 18.3176 26.4387 18.0781 26.3946C18.0872 26.6502 18.1074 26.8974 18.1074 27.1607V31.3427L22.8716 27.4901C23.133 27.2776 23.4596 27.1615 23.7965 27.1615C24.1334 27.1615 24.46 27.2776 24.7214 27.4901L26.92 29.2639L29.1109 27.4894C29.3723 27.2772 29.6988 27.1613 30.0355 27.1613C30.3721 27.1613 30.6986 27.2772 30.96 27.4894L33.4288 29.4833V26.4643C33.4288 22.7774 31.7636 20.9388 31.3346 20.8928H22.7414ZM27.1609 23.6785H25.7681C25.5834 23.6785 25.4062 23.6052 25.2756 23.4746C25.145 23.344 25.0717 23.1668 25.0717 22.9821C25.0717 22.7974 25.145 22.6203 25.2756 22.4897C25.4062 22.3591 25.5834 22.2857 25.7681 22.2857H27.1609C27.3457 22.2857 27.5228 22.3591 27.6534 22.4897C27.784 22.6203 27.8574 22.7974 27.8574 22.9821C27.8574 23.1668 27.784 23.344 27.6534 23.4746C27.5228 23.6052 27.3457 23.6785 27.1609 23.6785ZM32.0359 24.375C32.0359 24.5597 31.9626 24.7368 31.832 24.8674C31.7014 24.998 31.5242 25.0714 31.3395 25.0714H29.9467C29.762 25.0714 29.5848 24.998 29.4542 24.8674C29.3236 24.7368 29.2502 24.5597 29.2502 24.375C29.2502 24.1903 29.3236 24.0131 29.4542 23.8825C29.5848 23.7519 29.762 23.6785 29.9467 23.6785H31.3395C31.5242 23.6785 31.7014 23.7519 31.832 23.8825C31.9626 24.0131 32.0359 24.1903 32.0359 24.375Z" fill="white"/>
<path d="M33.4289 34.125H18.1074V36.2143H33.4289V34.125Z" fill="white"/>
<path d="M8.95719 24.9851C9.02387 25.4753 9.05599 25.9696 9.05329 26.4643C9.05329 29.2333 8.0964 32.0357 6.26758 32.0357C4.43876 32.0357 3.48186 29.2333 3.48186 26.4643C3.48186 26.2241 3.49092 25.9935 3.50345 25.7679H1.42392C1.41277 26.0005 1.39258 26.2289 1.39258 26.4643C1.39258 30.9946 3.62533 34.8215 6.26758 34.8215C8.90983 34.8215 11.1426 30.9946 11.1426 26.4643C11.1426 21.9341 8.90983 18.1072 6.26758 18.1072C4.88865 18.1072 3.58633 19.1344 2.66147 20.8929H6.26758C7.59079 20.8929 8.64727 22.4996 8.95719 24.9851Z" fill="white"/>
<path d="M38.3038 6.268C38.4885 6.268 38.6657 6.19462 38.7963 6.06402C38.9269 5.93341 39.0002 5.75627 39.0002 5.57157V4.87514C39.0002 4.69044 38.9269 4.5133 38.7963 4.38269C38.6657 4.25208 38.4885 4.17871 38.3038 4.17871H37.0161C37.2199 4.86246 37.3703 5.56098 37.466 6.268H38.3038Z" fill="white"/>
<path d="M0 22.9821V23.6785C0 23.8632 0.0733735 24.0403 0.203979 24.171C0.334585 24.3016 0.511724 24.3749 0.696429 24.3749H7.43716C7.1363 23.0239 6.59587 22.2856 6.26786 22.2856H0.696429C0.511724 22.2856 0.334585 22.359 0.203979 22.4896C0.0733735 22.6202 0 22.7974 0 22.9821Z" fill="white"/>
<path d="M31.3393 0H9.52783C11.342 1.69023 12.5357 4.76288 12.5357 8.35714C12.5357 11.9514 11.342 15.0241 9.52783 16.7143H31.3393C33.9815 16.7143 36.2143 12.8839 36.2143 8.35714C36.2143 3.83036 33.9815 0 31.3393 0Z" fill="white"/>
<path d="M6.26786 30.6428C6.75884 30.6428 7.66071 29.0564 7.66071 26.4643C7.66071 26.2219 7.65305 25.9898 7.63773 25.7678H4.89798C4.88266 25.9902 4.875 26.2224 4.875 26.4643C4.875 29.0564 5.78036 30.6428 6.26786 30.6428Z" fill="white"/>
</svg>
