<svg width="34" height="24" viewBox="0 0 34 24" fill="none" xmlns="http://www.w3.org/2000/svg">
<path fill-rule="evenodd" clip-rule="evenodd" d="M2.43937 9.42393H31.5606C32.2076 9.42393 32.8281 9.68093 33.2855 10.1384C33.743 10.5959 34 11.2163 34 11.8633C34 12.5103 33.743 13.1307 33.2855 13.5882C32.8281 14.0457 32.2076 14.3027 31.5606 14.3027H2.43937C1.79241 14.3027 1.17194 14.0457 0.714474 13.5882C0.257004 13.1307 0 12.5103 0 11.8633C0 11.2163 0.257004 10.5959 0.714474 10.1384C1.17194 9.68093 1.79241 9.42393 2.43937 9.42393ZM31.5606 11.5325H2.43937C2.35161 11.5325 2.26744 11.5673 2.20538 11.6294C2.14332 11.6914 2.10846 11.7756 2.10846 11.8634C2.10846 11.9511 2.14332 12.0353 2.20538 12.0974C2.26744 12.1594 2.35161 12.1943 2.43937 12.1943H31.5606C31.6484 12.1943 31.7326 12.1594 31.7946 12.0974C31.8567 12.0353 31.8915 11.9511 31.8915 11.8634C31.8915 11.7756 31.8567 11.6914 31.7946 11.6294C31.7326 11.5673 31.6484 11.5325 31.5606 11.5325ZM2.43937 0H31.5606C32.2054 0.00335105 32.8226 0.261836 33.2774 0.718949C33.7321 1.17606 33.9874 1.79462 33.9874 2.4394C33.9874 3.08418 33.7321 3.70274 33.2774 4.15985C32.8226 4.61697 32.2054 4.87545 31.5606 4.8788H2.43937C1.7946 4.87545 1.17737 4.61697 0.722629 4.15985C0.267886 3.70274 0.0126123 3.08418 0.0126123 2.4394C0.0126123 1.79462 0.267886 1.17606 0.722629 0.718949C1.17737 0.261836 1.7946 0.00335105 2.43937 0ZM31.5606 2.10853H2.43937C2.35242 2.10975 2.26946 2.14515 2.20841 2.20707C2.14736 2.26899 2.11313 2.35245 2.11313 2.4394C2.11313 2.52635 2.14736 2.60981 2.20841 2.67173C2.26946 2.73365 2.35242 2.76905 2.43937 2.77028H31.5606C31.6476 2.76905 31.7305 2.73365 31.7916 2.67173C31.8526 2.60981 31.8869 2.52635 31.8869 2.4394C31.8869 2.35245 31.8526 2.26899 31.7916 2.20707C31.7305 2.14515 31.6476 2.10975 31.5606 2.10853ZM2.43937 18.8478H31.5606C32.2054 18.8511 32.8226 19.1096 33.2774 19.5667C33.7321 20.0239 33.9874 20.6424 33.9874 21.2872C33.9874 21.932 33.7321 22.5505 33.2774 23.0076C32.8226 23.4648 32.2054 23.7232 31.5606 23.7266H2.43937C1.7946 23.7232 1.17737 23.4648 0.722629 23.0076C0.267886 22.5505 0.0126123 21.932 0.0126123 21.2872C0.0126123 20.6424 0.267886 20.0239 0.722629 19.5667C1.17737 19.1096 1.7946 18.8511 2.43937 18.8478ZM31.5606 20.9563H2.43937C2.35242 20.9575 2.26946 20.9929 2.20841 21.0549C2.14736 21.1168 2.11313 21.2002 2.11313 21.2872C2.11313 21.3742 2.14736 21.4576 2.20841 21.5195C2.26946 21.5814 2.35242 21.6168 2.43937 21.6181H31.5606C31.6476 21.6168 31.7305 21.5814 31.7916 21.5195C31.8526 21.4576 31.8869 21.3742 31.8869 21.2872C31.8869 21.2002 31.8526 21.1168 31.7916 21.0549C31.7305 20.9929 31.6476 20.9575 31.5606 20.9563ZM2.43937 2.77028H31.5606C31.6476 2.76905 31.7305 2.73365 31.7916 2.67173C31.8526 2.60981 31.8869 2.52635 31.8869 2.4394C31.8869 2.35245 31.8526 2.26899 31.7916 2.20707C31.7305 2.14515 31.6476 2.10975 31.5606 2.10853H2.43937C2.35242 2.10975 2.26946 2.14515 2.20841 2.20707C2.14736 2.26899 2.11313 2.35245 2.11313 2.4394C2.11313 2.52635 2.14736 2.60981 2.20841 2.67173C2.26946 2.73365 2.35242 2.76905 2.43937 2.77028ZM31.5606 11.5325H2.43937C2.35161 11.5325 2.26744 11.5673 2.20538 11.6294C2.14332 11.6914 2.10846 11.7756 2.10846 11.8634C2.10846 11.9511 2.14332 12.0353 2.20538 12.0974C2.26744 12.1594 2.35161 12.1943 2.43937 12.1943L17 12.1942L31.5606 12.1943C31.6484 12.1943 31.7326 12.1594 31.7946 12.0974C31.8567 12.0353 31.8915 11.9511 31.8915 11.8634C31.8915 11.7756 31.8567 11.6914 31.7946 11.6294C31.7326 11.5673 31.6484 11.5325 31.5606 11.5325ZM31.5606 20.9563H2.43937C2.35242 20.9575 2.26946 20.9929 2.20841 21.0549C2.14736 21.1168 2.11313 21.2002 2.11313 21.2872C2.11313 21.3742 2.14736 21.4576 2.20841 21.5195C2.26946 21.5814 2.35242 21.6168 2.43937 21.6181H31.5606C31.6476 21.6168 31.7305 21.5814 31.7916 21.5195C31.8526 21.4576 31.8869 21.3742 31.8869 21.2872C31.8869 21.2002 31.8526 21.1168 31.7916 21.0549C31.7305 20.9929 31.6476 20.9575 31.5606 20.9563Z" fill="white"/>
</svg>
