<svg width="41" height="40" viewBox="0 0 41 40" fill="none" xmlns="http://www.w3.org/2000/svg">
<path d="M27.4941 32.0835C27.9701 32.5595 27.9701 33.3312 27.4941 33.8071C27.0182 34.2831 26.2465 34.2831 25.7705 33.8071C25.2946 33.3312 25.2946 32.5595 25.7705 32.0835C26.2465 31.6076 27.0182 31.6076 27.4941 32.0835Z" fill="white"/>
<path d="M22.6191 36.9585C23.0951 37.4345 23.0951 38.2062 22.6191 38.6821C22.1432 39.1581 21.3715 39.1581 20.8955 38.6821C20.4196 38.2062 20.4196 37.4345 20.8955 36.9585C21.3715 36.4826 22.1432 36.4826 22.6191 36.9585Z" fill="white"/>
<path d="M32.0122 34.8775C32.9641 35.8294 32.9641 37.3728 32.0122 38.3247C31.0603 39.2766 29.5169 39.2766 28.565 38.3247C27.6131 37.3728 27.6131 35.8294 28.565 34.8775C29.5169 33.9256 31.0603 33.9256 32.0122 34.8775Z" fill="white"/>
<path d="M35.4996 0.0390625C34.1499 0.0390625 32.8788 0.634163 32.0135 1.67202L24.3052 10.9215C24.8732 11.1828 25.4211 11.4913 25.9363 11.8589C27.3882 12.8956 28.4541 14.253 29.1875 15.7478L38.4061 8.06458C39.4439 7.19931 40.039 5.92818 40.039 4.57848C40.039 2.07548 38.0026 0.0390625 35.4996 0.0390625Z" fill="white"/>
<path d="M24.5209 13.8441C21.4002 11.6185 17.0703 11.866 14.2293 14.4297C12.4547 16.0317 7.05596 20.9056 1.9976 22.0053L0.960938 22.2315C0.960938 22.2315 1.0383 25.6343 2.06961 27.1688C4.08952 26.9432 5.72471 26.5254 6.28619 25.9639C5.04481 27.4322 4.10054 28.4938 3.36901 29.288C3.97065 30.0921 4.71155 30.8555 5.5438 31.5916C8.52792 30.322 11.1895 28.1277 12.0579 27.2592C10.3077 30.1762 8.88438 32.3671 8.13603 33.4957C9.80142 32.5267 11.8312 31.2673 13.7307 29.8566C13.0206 30.5667 12.0891 32.7974 11.3357 35.3452C12.1757 35.7505 14.5375 36.5995 14.5375 36.5995C18.1641 36.3234 24.4626 27.7802 26.5835 24.5119C28.8699 20.9901 27.9642 16.3031 24.5209 13.8441Z" fill="white"/>
</svg>
