<svg width="29" height="28" viewBox="0 0 29 28" fill="none" xmlns="http://www.w3.org/2000/svg">
<path d="M17.521 13.7168C17.521 15.3541 16.1939 16.6812 14.5566 16.6812C12.9194 16.6812 11.5923 15.3541 11.5923 13.7168C11.5923 12.0796 12.9194 10.752 14.5566 10.752C16.1939 10.752 17.521 12.0796 17.521 13.7168Z" fill="white"/>
<path d="M25.4218 0H3.89384C2.25495 0 0.92627 1.32868 0.92627 2.96757V24.4955C0.92627 26.1344 2.25495 27.4631 3.89384 27.4631H25.4218C27.0606 27.4631 28.3893 26.1344 28.3893 24.4955V2.96757C28.3893 1.32868 27.0606 0 25.4218 0ZM23.3971 17.3822C23.3543 18.3289 23.2037 18.9755 22.984 19.5408C22.7563 20.1258 22.4526 20.6219 21.9581 21.1164C21.4636 21.6104 20.9674 21.9147 20.3829 22.1419C19.8172 22.3621 19.1705 22.5121 18.2238 22.5555C17.2755 22.5989 16.9723 22.6091 14.5571 22.6091C12.1419 22.6091 11.8386 22.5989 10.8903 22.5555C9.94365 22.5121 9.29698 22.3621 8.73122 22.1419C8.14671 21.9147 7.65059 21.6104 7.15609 21.1164C6.66158 20.6219 6.3578 20.1258 6.13011 19.5408C5.91045 18.9755 5.76043 18.3289 5.71704 17.3822C5.67364 16.4334 5.66346 16.1307 5.66346 13.7155C5.66346 11.2997 5.67364 10.997 5.71704 10.0487C5.76043 9.10203 5.91045 8.45536 6.13011 7.8896C6.3578 7.30509 6.66158 6.80897 7.15609 6.31447C7.65059 5.81996 8.14671 5.51565 8.73122 5.28849C9.29698 5.06883 9.94365 4.91828 10.8903 4.87542C11.8386 4.83202 12.1419 4.82184 14.5571 4.82184C16.9723 4.82184 17.2755 4.83202 18.2238 4.87542C19.1705 4.91828 19.8172 5.06883 20.3829 5.28849C20.9674 5.51565 21.4636 5.81996 21.9581 6.31447C22.4526 6.80897 22.7563 7.30509 22.984 7.8896C23.2037 8.45536 23.3543 9.10203 23.3971 10.0487C23.4405 10.997 23.4507 11.2997 23.4507 13.7155C23.4507 16.1307 23.4405 16.4334 23.3971 17.3822ZM21.4903 8.47037C21.3291 8.05515 21.1362 7.75888 20.8249 7.4476C20.5137 7.13632 20.2174 6.94345 19.8022 6.78219C19.4887 6.66057 19.0178 6.51538 18.151 6.47627C17.2128 6.43341 16.9316 6.4243 14.5571 6.4243C12.1826 6.4243 11.9013 6.43341 10.9632 6.47627C10.0963 6.51538 9.62541 6.66057 9.31199 6.78219C8.89677 6.94345 8.6005 7.13632 8.28922 7.4476C7.97794 7.75888 7.78507 8.05515 7.62381 8.47037C7.50219 8.78379 7.35753 9.25472 7.31789 10.1216C7.27503 11.0592 7.26592 11.3404 7.26592 13.7155C7.26592 16.0899 7.27503 16.3712 7.31789 17.3093C7.35753 18.1762 7.50219 18.6471 7.62381 18.9605C7.78507 19.3758 7.97794 19.672 8.28922 19.9833C8.6005 20.2946 8.89677 20.4869 9.31199 20.6482C9.62541 20.7703 10.0963 20.915 10.9632 20.9546C11.9008 20.9975 12.1821 21.0066 14.5571 21.0066C16.9321 21.0066 17.2134 20.9975 18.151 20.9546C19.0178 20.915 19.4887 20.7703 19.8022 20.6482C20.2174 20.4869 20.5137 20.2946 20.8249 19.9833C21.1362 19.672 21.3291 19.3758 21.4903 18.9605C21.612 18.6471 21.7566 18.1762 21.7963 17.3093C21.8391 16.3712 21.8482 16.0899 21.8482 13.7155C21.8482 11.3404 21.8391 11.0592 21.7963 10.1216C21.7566 9.25472 21.612 8.78379 21.4903 8.47037ZM14.5571 18.2823C12.0347 18.2823 9.99026 16.2378 9.99026 13.7155C9.99026 11.1931 12.0347 9.1481 14.5571 9.1481C17.0794 9.1481 19.1239 11.1931 19.1239 13.7155C19.1239 16.2378 17.0794 18.2823 14.5571 18.2823ZM19.3044 10.0353C18.7151 10.0353 18.2372 9.55742 18.2372 8.96809C18.2372 8.37875 18.7151 7.90085 19.3044 7.90085C19.8938 7.90085 20.3717 8.37875 20.3717 8.96809C20.3717 9.55742 19.8938 10.0353 19.3044 10.0353Z" fill="white"/>
</svg>
