<svg width="28" height="28" viewBox="0 0 28 28" fill="none" xmlns="http://www.w3.org/2000/svg">
<path d="M23.7181 0H3.74496C2.75174 0 1.79919 0.394557 1.09687 1.09687C0.394557 1.79919 0 2.75174 0 3.74496L0 23.7181C0 24.7113 0.394557 25.6639 1.09687 26.3662C1.79919 27.0685 2.75174 27.4631 3.74496 27.4631H23.7181C24.7113 27.4631 25.6639 27.0685 26.3662 26.3662C27.0685 25.6639 27.4631 24.7113 27.4631 23.7181V3.74496C27.4631 2.75174 27.0685 1.79919 26.3662 1.09687C25.6639 0.394557 24.7113 0 23.7181 0ZM9.36241 21.7333C9.36261 21.8094 9.34779 21.8849 9.31879 21.9553C9.28979 22.0257 9.24718 22.0897 9.1934 22.1436C9.13962 22.1976 9.07574 22.2403 9.0054 22.2695C8.93506 22.2987 8.85965 22.3137 8.7835 22.3137H6.3165C6.24022 22.3139 6.16464 22.2991 6.09413 22.27C6.02361 22.2409 5.95953 22.1981 5.90559 22.1442C5.85165 22.0902 5.8089 22.0262 5.7798 21.9556C5.7507 21.8851 5.73583 21.8096 5.73603 21.7333V11.3909C5.73603 11.237 5.79719 11.0893 5.90605 10.9805C6.01491 10.8716 6.16255 10.8105 6.3165 10.8105H8.7835C8.93718 10.8109 9.08442 10.8722 9.19294 10.981C9.30147 11.0898 9.36241 11.2372 9.36241 11.3909V21.7333ZM7.54922 9.83053C7.08629 9.83053 6.63376 9.69325 6.24885 9.43607C5.86394 9.17888 5.56394 8.81332 5.38679 8.38564C5.20963 7.95795 5.16328 7.48733 5.25359 7.0333C5.34391 6.57927 5.56683 6.16221 5.89417 5.83487C6.22151 5.50753 6.63856 5.28461 7.09259 5.1943C7.54663 5.10399 8.01724 5.15034 8.44493 5.32749C8.87262 5.50465 9.23817 5.80465 9.49536 6.18956C9.75255 6.57447 9.88982 7.027 9.88982 7.48993C9.88982 8.11069 9.64323 8.70603 9.20428 9.14498C8.76533 9.58393 8.16999 9.83053 7.54922 9.83053ZM22.2576 21.7738C22.2578 21.844 22.2441 21.9135 22.2174 21.9783C22.1906 22.0431 22.1513 22.1021 22.1017 22.1517C22.0521 22.2012 21.9932 22.2405 21.9284 22.2673C21.8635 22.294 21.794 22.3077 21.7239 22.3075H19.0712C19.0011 22.3077 18.9316 22.294 18.8668 22.2673C18.8019 22.2405 18.743 22.2012 18.6934 22.1517C18.6438 22.1021 18.6045 22.0431 18.5778 21.9783C18.551 21.9135 18.5374 21.844 18.5376 21.7738V16.9288C18.5376 16.2048 18.7498 13.7581 16.6448 13.7581C15.0142 13.7581 14.6818 15.4324 14.6163 16.1845V21.7801C14.6163 21.9203 14.5611 22.0548 14.4627 22.1547C14.3643 22.2546 14.2306 22.3117 14.0904 22.3137H11.5282C11.4582 22.3137 11.3889 22.2999 11.3243 22.2731C11.2596 22.2462 11.2009 22.2069 11.1514 22.1573C11.102 22.1078 11.0629 22.0489 11.0362 21.9842C11.0096 21.9194 10.9959 21.8501 10.9961 21.7801V11.3457C10.9959 11.2757 11.0096 11.2063 11.0362 11.1416C11.0629 11.0768 11.102 11.018 11.1514 10.9684C11.2009 10.9188 11.2596 10.8795 11.3243 10.8527C11.3889 10.8258 11.4582 10.812 11.5282 10.812H14.0904C14.232 10.812 14.3677 10.8682 14.4678 10.9683C14.5679 11.0684 14.6241 11.2041 14.6241 11.3457V12.2476C15.2295 11.3379 16.1267 10.6388 18.0414 10.6388C22.2825 10.6388 22.2544 14.5991 22.2544 16.7743L22.2576 21.7738Z" fill="white"/>
</svg>
