<svg width="32" height="39" viewBox="0 0 32 39" fill="none" xmlns="http://www.w3.org/2000/svg">
<path fill-rule="evenodd" clip-rule="evenodd" d="M6.31907 5.37949V11.4519H12.3915V5.37949H6.31907ZM16.8105 34.4467H12.5051V37.8907L16.8105 34.4467ZM20.7627 6.60585H31.2152V39H14.4047L20.3562 34.2379C20.4823 34.142 20.5845 34.0183 20.655 33.8765C20.7255 33.7347 20.7624 33.5786 20.7627 33.4202V6.60601V6.60585ZM13.4175 13.5045H5.29257C5.15778 13.5046 5.02431 13.478 4.89977 13.4265C4.77523 13.3749 4.66207 13.2993 4.56675 13.204C4.47144 13.1087 4.39583 12.9956 4.34425 12.871C4.29267 12.7465 4.26614 12.613 4.26616 12.4782V4.3533C4.26612 4.2185 4.29264 4.08501 4.34421 3.96046C4.39578 3.83591 4.47138 3.72274 4.5667 3.62742C4.66202 3.5321 4.77519 3.4565 4.89973 3.40493C5.02428 3.35336 5.15777 3.32684 5.29257 3.32688H13.4175C13.5523 3.32681 13.6858 3.35331 13.8104 3.40487C13.935 3.45643 14.0481 3.53203 14.1435 3.62736C14.2388 3.72268 14.3144 3.83586 14.366 3.96042C14.4175 4.08499 14.444 4.21849 14.4439 4.3533V12.4782C14.444 12.613 14.4175 12.7465 14.3659 12.8711C14.3143 12.9956 14.2387 13.1088 14.1434 13.2041C14.0481 13.2994 13.9349 13.375 13.8104 13.4265C13.6858 13.4781 13.5523 13.5046 13.4175 13.5045ZM18.7102 0V32.3939H0V0L18.7102 0ZM13.4086 26.7355H5.30156C5.02938 26.7355 4.76835 26.8436 4.57588 27.0361C4.38342 27.2285 4.2753 27.4896 4.2753 27.7618C4.2753 28.0339 4.38342 28.295 4.57588 28.4874C4.76835 28.6799 5.02938 28.788 5.30156 28.788H13.4093C13.6815 28.788 13.9425 28.6799 14.135 28.4874C14.3274 28.295 14.4356 28.0339 14.4356 27.7618C14.4356 27.4896 14.3274 27.2285 14.135 27.0361C13.9425 26.8436 13.6815 26.7355 13.4093 26.7355H13.4086ZM13.4086 21.6038H5.30156C5.02936 21.6038 4.76831 21.7119 4.57583 21.9044C4.38335 22.0969 4.27522 22.3579 4.27522 22.6301C4.27522 22.9023 4.38335 23.1634 4.57583 23.3559C4.76831 23.5483 5.02936 23.6565 5.30156 23.6565H13.4093C13.6815 23.6565 13.9426 23.5483 14.135 23.3559C14.3275 23.1634 14.4356 22.9023 14.4356 22.6301C14.4356 22.3579 14.3275 22.0969 14.135 21.9044C13.9426 21.7119 13.6815 21.6038 13.4093 21.6038H13.4086ZM13.4086 16.4723H5.30156C5.0309 16.4747 4.77212 16.5838 4.58155 16.776C4.39099 16.9682 4.28406 17.228 4.28406 17.4986C4.28406 17.7693 4.39099 18.029 4.58155 18.2212C4.77212 18.4134 5.0309 18.5226 5.30156 18.5249H13.4093C13.5448 18.5261 13.6792 18.5004 13.8048 18.4494C13.9303 18.3983 14.0445 18.3229 14.1407 18.2275C14.237 18.1321 14.3134 18.0185 14.3655 17.8934C14.4176 17.7683 14.4445 17.6341 14.4445 17.4986C14.4445 17.3631 14.4176 17.2289 14.3655 17.1038C14.3134 16.9787 14.237 16.8652 14.1407 16.7698C14.0445 16.6744 13.9303 16.5989 13.8048 16.5479C13.6792 16.4968 13.5448 16.4712 13.4093 16.4723H13.4086Z" fill="white"/>
</svg>
