<svg width="39" height="39" viewBox="0 0 39 39" fill="none" xmlns="http://www.w3.org/2000/svg">
<path d="M37.1114 28.8354L31.4485 24.8789C30.708 24.3624 29.8425 24.0901 28.9449 24.0901C27.5176 24.0901 26.1779 24.7901 25.3618 25.9613L24.0473 27.8452C21.8441 26.3676 19.3857 24.3044 17.0421 21.9612C14.6989 19.618 12.6361 17.1596 11.1589 14.9564L13.042 13.6419C14.0019 12.9735 14.643 11.9722 14.8466 10.8232C15.0497 9.67513 14.7936 8.51506 14.1244 7.55475L10.1687 1.89186C9.34159 0.708747 8.00696 0.00195312 6.59807 0.00195312C6.1098 0.00195312 5.63092 0.0881683 5.17509 0.256331C4.65737 0.447541 4.17508 0.682285 3.70217 0.979343L2.92026 1.52993C2.72478 1.68187 2.54296 1.84832 2.36883 2.02246C1.41491 2.97595 0.737994 4.18296 0.356001 5.61021C-1.27398 11.7204 2.76405 20.9599 10.4039 28.5998C16.8197 35.0156 24.5274 39.0011 30.5185 39.002C31.5446 39.002 32.5121 38.8824 33.3939 38.6468C34.8212 38.2653 36.0282 37.5884 36.9825 36.634C37.1558 36.4607 37.3214 36.2789 37.499 36.0493L38.05 35.2631C38.3193 34.8329 38.5536 34.3506 38.7474 33.829C39.4136 32.0279 38.741 29.9741 37.1114 28.8354Z" fill="white"/>
</svg>
