<svg width="46" height="47" viewBox="0 0 46 47" fill="none" xmlns="http://www.w3.org/2000/svg">
<g clip-path="url(#clip0_135_43)">
<path d="M44.748 34.2594L38.3286 27.8399C36.036 25.5473 32.1384 26.4644 31.2214 29.4448C30.5336 31.5083 28.2409 32.6546 26.1775 32.196C21.5922 31.0496 15.402 25.0887 14.2557 20.2742C13.5679 18.2107 14.9435 15.918 17.0069 15.2303C19.9874 14.3133 20.9044 10.4157 18.6118 8.12308L12.1923 1.70364C10.3582 0.0987852 7.60701 0.0987852 6.00216 1.70364L1.64611 6.05969C-2.70994 10.645 2.10464 22.7961 12.8801 33.5716C23.6556 44.347 35.8067 49.391 40.392 44.8056L44.748 40.4495C46.353 38.6154 46.353 35.8642 44.748 34.2594Z" fill="#5A4FF5"/>
</g>
<defs>
<clipPath id="clip0_135_43">
<rect width="46" height="46" fill="white" transform="translate(0 0.5)"/>
</clipPath>
</defs>
</svg>
