<svg width="39" height="39" viewBox="0 0 39 39" fill="none" xmlns="http://www.w3.org/2000/svg">
<path d="M29.8506 37.1627C28.8465 36.7153 27.9606 36.0397 27.2635 35.1897C26.5663 34.3397 26.0771 33.3387 25.8348 32.2664C25.8121 32.169 25.7587 32.0814 25.6825 32.0166C24.9305 31.3661 24.3002 30.5872 23.8208 29.7162C23.6316 29.3822 23.5409 29.0015 23.5593 28.6181C23.5777 28.2347 23.7045 27.8644 23.925 27.5501C24.1454 27.2359 24.4505 26.9907 24.8047 26.8428C25.1589 26.695 25.5478 26.6507 25.9262 26.715C26.1714 26.7595 26.4209 26.7748 26.6697 26.7607C26.7367 26.7567 26.8021 26.738 26.861 26.7058C26.92 26.6737 26.9712 26.629 27.0109 26.5748C27.9735 25.258 29.3751 24.3287 30.9627 23.9545C31.0619 23.9307 31.1501 23.8741 31.2131 23.7939C31.2761 23.7138 31.3103 23.6147 31.3101 23.5127V20.1795C31.31 20.0692 31.2702 19.9627 31.198 19.8793C31.1259 19.7959 31.0261 19.7413 30.917 19.7255C30.6519 19.6859 30.4173 19.6432 30.201 19.5914C29.2956 19.3726 28.437 18.9928 27.666 18.4702C27.5821 18.4101 27.4794 18.382 27.3765 18.3909C26.258 18.4555 25.137 18.3172 24.0676 17.9827C22.3861 17.5479 22.0119 15.1326 23.4826 14.2076C23.7651 14.0165 24.0212 13.7891 24.2444 13.5312C24.288 13.4819 24.3202 13.4235 24.3387 13.3603C24.3571 13.2971 24.3613 13.2306 24.351 13.1655C24.1446 11.7204 24.3495 10.2463 24.9421 8.91211C25.469 7.71239 26.2941 6.66739 27.3388 5.87651C28.3835 5.08562 29.6132 4.57514 30.9109 4.3936C31.0234 4.37707 31.1257 4.31921 31.1978 4.23132C31.2699 4.14344 31.3067 4.03182 31.3009 3.91828C31.2531 2.86231 30.7997 1.86549 30.0351 1.13555C29.2706 0.405612 28.2538 -0.00115705 27.1968 2.47218e-06H11.6577C10.5673 0.00161432 9.52201 0.435494 8.75097 1.20653C7.97993 1.97758 7.54605 3.02287 7.54443 4.11328V10.9078C7.5451 10.9717 7.55905 11.0348 7.5854 11.093C7.61174 11.1512 7.64991 11.2034 7.69747 11.2461C7.74503 11.2887 7.80095 11.3211 7.86168 11.341C7.9224 11.3609 7.98661 11.368 8.05022 11.3618C8.3994 11.3247 8.75024 11.3054 9.10139 11.3039C11.0282 11.3057 12.9137 11.862 14.5329 12.9063C16.1521 13.9507 17.4366 15.439 18.2329 17.1935C18.259 17.2523 18.2972 17.3049 18.345 17.3479C18.3927 17.3909 18.449 17.4235 18.5101 17.4434C19.0973 17.6359 19.7112 17.7346 20.3291 17.7359C20.7785 17.738 21.2181 17.867 21.5973 18.1082C21.9765 18.3494 22.2797 18.6928 22.4721 19.099C22.6645 19.5051 22.7382 19.9573 22.6846 20.4035C22.6311 20.8496 22.4525 21.2716 22.1694 21.6206C21.2191 22.827 20.0423 23.8361 18.7051 24.5913C18.6074 24.6424 18.5324 24.7283 18.4949 24.832C17.7805 26.7499 16.4958 28.4029 14.8137 29.5686C13.1316 30.7343 11.1327 31.3568 9.08615 31.3523C8.74003 31.3496 8.39427 31.3293 8.05022 31.2914C7.98663 31.2853 7.92246 31.2924 7.86177 31.3124C7.80109 31.3324 7.74521 31.3647 7.69766 31.4074C7.65012 31.45 7.61196 31.5021 7.58558 31.5603C7.55921 31.6185 7.54519 31.6815 7.54443 31.7454V34.8867C7.54605 35.9771 7.97993 37.0224 8.75097 37.7935C9.52201 38.5645 10.5673 38.9984 11.6577 39H27.1968C28.2255 39.0002 29.2165 38.6129 29.9725 37.9153C30.028 37.8641 30.07 37.8 30.0946 37.7286C30.1193 37.6572 30.1259 37.5808 30.1138 37.5063C30.1017 37.4317 30.0714 37.3613 30.0255 37.3014C29.9795 37.2414 29.9195 37.1938 29.8506 37.1627ZM16.5632 3.35156C16.2135 3.34063 15.8733 3.23513 15.5787 3.04629C15.2842 2.85744 15.0463 2.5923 14.8905 2.27906L14.1592 0.914065H24.6983L23.964 2.27906C23.8082 2.5923 23.5703 2.85744 23.2758 3.04629C22.9812 3.23513 22.641 3.34063 22.2913 3.35156H16.5632ZM22.6265 35.0391H16.228C16.1068 35.0391 15.9906 34.9909 15.9049 34.9052C15.8191 34.8195 15.771 34.7032 15.771 34.582C15.771 34.4608 15.8191 34.3446 15.9049 34.2589C15.9906 34.1731 16.1068 34.125 16.228 34.125H22.6265C22.7477 34.125 22.8639 34.1731 22.9496 34.2589C23.0354 34.3446 23.0835 34.4608 23.0835 34.582C23.0835 34.7032 23.0354 34.8195 22.9496 34.9052C22.8639 34.9909 22.7477 35.0391 22.6265 35.0391Z" fill="white"/>
<path d="M32.0669 31.3828H33.2741L33.6007 30.1641H32.3935L32.0669 31.3828Z" fill="white"/>
<path d="M30.3407 25.1063C29.1481 25.5854 28.1415 26.4358 27.4699 27.5316C27.4597 27.5476 27.4464 27.5613 27.4306 27.5718C27.4149 27.5823 27.3971 27.5894 27.3785 27.5926C26.847 27.7003 26.3002 27.7087 25.7658 27.6173C25.5586 27.5821 25.3456 27.6064 25.1517 27.6874C24.9577 27.7685 24.7908 27.9028 24.6702 28.075C24.5496 28.2471 24.4804 28.45 24.4705 28.6599C24.4606 28.8699 24.5105 29.0783 24.6144 29.261C25.102 30.1637 25.7773 30.9515 26.5948 31.5715C26.609 31.5814 26.6212 31.594 26.6305 31.6086C26.6398 31.6231 26.6461 31.6394 26.6491 31.6565C27.0778 34.5949 29.8437 36.92 32.7309 36.8883C33.8363 36.8757 34.9174 36.5625 35.8583 35.9821C36.7991 35.4018 37.5642 34.5763 38.0715 33.5941C38.5789 32.612 38.8092 31.5103 38.7379 30.4071C38.6666 29.304 38.2964 28.2411 37.6669 27.3324C36.8767 26.1884 35.7224 25.3456 34.3921 24.9414C33.0617 24.5372 31.6337 24.5953 30.3407 25.1063ZM35.4235 30.1641H34.5469L34.2205 31.3829H35.1188C35.24 31.3829 35.3562 31.431 35.4419 31.5167C35.5276 31.6025 35.5758 31.7187 35.5758 31.8399C35.5758 31.9611 35.5276 32.0774 35.4419 32.1631C35.3562 32.2488 35.24 32.2969 35.1188 32.2969H33.9756L33.6834 33.3868C33.6678 33.4448 33.641 33.4992 33.6045 33.5469C33.5679 33.5945 33.5223 33.6345 33.4703 33.6645C33.4183 33.6946 33.3608 33.7141 33.3013 33.7219C33.2417 33.7297 33.1812 33.7258 33.1232 33.7102C33.0652 33.6947 33.0108 33.6679 32.9632 33.6313C32.9155 33.5947 32.8755 33.5492 32.8455 33.4971C32.8155 33.4451 32.796 33.3877 32.7881 33.3281C32.7803 33.2686 32.7842 33.2081 32.7998 33.1501L33.0283 32.2969H31.8211L31.5256 33.4002C31.51 33.4582 31.4832 33.5126 31.4467 33.5603C31.4101 33.6079 31.3645 33.6479 31.3125 33.6779C31.2605 33.708 31.203 33.7275 31.1435 33.7353C31.0839 33.7432 31.0234 33.7392 30.9654 33.7236C30.9074 33.7081 30.853 33.6813 30.8054 33.6447C30.7577 33.6082 30.7177 33.5626 30.6877 33.5105C30.6577 33.4585 30.6382 33.4011 30.6303 33.3416C30.6225 33.282 30.6264 33.2215 30.642 33.1635L30.8742 32.2969H30.2438C30.1226 32.2969 30.0063 32.2488 29.9206 32.1631C29.8349 32.0774 29.7867 31.9611 29.7867 31.8399C29.7867 31.7187 29.8349 31.6025 29.9206 31.5167C30.0063 31.431 30.1226 31.3829 30.2438 31.3829H31.1203L31.4467 30.1641H30.5484C30.4272 30.1641 30.311 30.116 30.2253 30.0303C30.1396 29.9446 30.0914 29.8283 30.0914 29.7071C30.0914 29.5859 30.1396 29.4696 30.2253 29.3839C30.311 29.2982 30.4272 29.2501 30.5484 29.2501H31.6916L31.9838 28.1602C32.0152 28.043 32.0919 27.9431 32.1969 27.8825C32.302 27.8218 32.4268 27.8054 32.544 27.8368C32.6612 27.8682 32.7611 27.9448 32.8217 28.0499C32.8824 28.1549 32.8988 28.2798 32.8674 28.3969L32.6389 29.2501H33.8461L34.1416 28.1468C34.1572 28.0888 34.184 28.0344 34.2206 27.9867C34.2571 27.9391 34.3027 27.8991 34.3547 27.8691C34.4067 27.839 34.4642 27.8195 34.5237 27.8117C34.5833 27.8039 34.6438 27.8078 34.7018 27.8234C34.7598 27.8389 34.8142 27.8657 34.8619 27.9023C34.9095 27.9389 34.9495 27.9845 34.9795 28.0365C35.0096 28.0885 35.0291 28.1459 35.0369 28.2055C35.0447 28.265 35.0408 28.3255 35.0252 28.3835L34.7918 29.2501H35.4235C35.5447 29.2501 35.6609 29.2982 35.7466 29.3839C35.8323 29.4696 35.8805 29.5859 35.8805 29.7071C35.8805 29.8283 35.8323 29.9446 35.7466 30.0303C35.6609 30.116 35.5447 30.1641 35.4235 30.1641Z" fill="white"/>
<path d="M25.7793 9.28139C25.1898 10.6006 25.0351 12.0731 25.3375 13.4861C25.3436 13.5162 25.3435 13.5472 25.3371 13.5773C25.3307 13.6073 25.3182 13.6357 25.3003 13.6607C24.9505 14.1725 24.5087 14.615 23.9974 14.9656C23.8113 15.0939 23.6651 15.272 23.5755 15.4796C23.4859 15.6871 23.4567 15.9157 23.491 16.1391C23.5254 16.3625 23.6221 16.5717 23.7699 16.7428C23.9177 16.9138 24.1107 17.0397 24.3268 17.1061C25.4156 17.4587 26.5678 17.5716 27.7043 17.437C27.7301 17.4331 27.7564 17.4345 27.7817 17.4408C27.807 17.4472 27.8308 17.4585 27.8517 17.4741C29.0545 18.3902 30.5229 18.8897 32.0348 18.897C37.0429 18.9199 40.4085 13.4401 38.0941 8.94349C35.4942 3.89421 28.0836 4.06514 25.7793 9.28139ZM32.49 15.1241C32.3624 15.1964 32.2183 15.2344 32.0717 15.2344C31.925 15.2344 31.7809 15.1964 31.6533 15.1241C29.8657 14.1079 28.8502 12.8462 28.8935 11.2469C28.8924 11.0114 28.9377 10.778 29.0268 10.56C29.116 10.342 29.2471 10.1437 29.4129 9.97639C29.5787 9.80909 29.7758 9.67609 29.993 9.58496C30.2101 9.49384 30.4431 9.44638 30.6786 9.44531C30.9468 9.44518 31.2115 9.5059 31.4528 9.62291C31.6941 9.73992 31.9057 9.91015 32.0717 10.1208C32.2376 9.91015 32.4492 9.73992 32.6905 9.62291C32.9318 9.5059 33.1965 9.44518 33.4647 9.44531C33.7002 9.44638 33.9332 9.49384 34.1504 9.58496C34.3675 9.67609 34.5646 9.80909 34.7304 9.97639C34.8962 10.1437 35.0274 10.342 35.1165 10.56C35.2056 10.778 35.2509 11.0114 35.2499 11.2469C35.2946 12.8462 34.2776 14.107 32.49 15.1241Z" fill="white"/>
<path d="M17.7515 24.1897C17.7701 24.1355 17.7992 24.0856 17.8372 24.0428C17.8751 23.9999 17.9212 23.965 17.9728 23.9401C19.3318 23.2363 20.5225 22.2467 21.4629 21.0392C21.636 20.8241 21.7448 20.5647 21.7771 20.2905C21.8094 20.0164 21.7638 19.7387 21.6455 19.4893C21.5273 19.24 21.3411 19.0289 21.1084 18.8805C20.8757 18.7321 20.6058 18.6522 20.3298 18.6501C19.4679 18.6456 18.6143 18.4812 17.8125 18.1651C17.7524 18.1425 17.6976 18.1078 17.6515 18.0632C17.6053 18.0186 17.5687 17.965 17.5441 17.9058C16.8206 16.1195 15.5482 14.6092 13.9107 13.5929C7.46987 9.55583 -0.790216 14.9147 0.0607762 22.431C0.563815 26.8734 4.67344 30.543 9.10451 30.4504C12.843 30.532 16.6154 27.8578 17.7515 24.1897ZM6.93514 25.204C6.79651 25.2852 6.63876 25.328 6.47811 25.328H5.25936C5.01693 25.328 4.78444 25.2317 4.61302 25.0603C4.4416 24.8888 4.34529 24.6563 4.34529 24.4139V19.8436C4.34529 19.6012 4.4416 19.3687 4.61302 19.1973C4.78444 19.0258 5.01693 18.9295 5.25936 18.9295H6.47811C6.63852 18.9292 6.79617 18.9713 6.93514 19.0514V25.204ZM7.8492 24.7945V19.3205C8.74437 18.4899 9.32023 16.7989 9.70384 16.0018C10.379 14.5978 11.7391 16.4811 11.4067 17.4948C11.2919 17.8458 11.0484 18.9268 11.0484 18.9268C11.7757 18.9268 12.4732 19.2157 12.9874 19.73C13.5017 20.2442 13.7906 20.9417 13.7906 21.669V22.5831C13.7906 23.3103 13.5017 24.0078 12.9874 24.5221C12.4732 25.0363 11.7757 25.3252 11.0484 25.3252H9.34705C9.06325 25.3252 8.78337 25.259 8.52957 25.1321L7.8492 24.7945Z" fill="white"/>
</svg>
