<svg width="42" height="39" viewBox="0 0 42 39" fill="none" xmlns="http://www.w3.org/2000/svg">
<path d="M24.5389 31.4415H23.9476L22.4743 28.2659H13.8309L12.3577 31.4415H9.01062C8.6519 31.4415 8.35449 31.739 8.35449 32.0976C8.35449 32.465 8.6519 32.7538 9.01062 32.7538H11.7488H24.5389H24.5564L24.5389 32.716V31.4415Z" fill="white"/>
<path d="M24.539 22.0808H0V24.4079C0 25.8164 1.13727 26.9536 2.54574 26.9536H24.539V22.0808ZM19.5612 24.8453H16.7442C16.3768 24.8453 16.0881 24.5566 16.0881 24.1892C16.0881 23.8305 16.3768 23.5331 16.7442 23.5331H19.5612C19.9199 23.5331 20.2173 23.8305 20.2173 24.1892C20.2173 24.5566 19.9199 24.8453 19.5612 24.8453Z" fill="white"/>
<path d="M38.7553 15.3008H28.4323C27.0151 15.3008 25.8516 16.4643 25.8516 17.8903V36.4192C25.8516 37.8364 27.0151 39 28.4323 39H38.7553C40.1725 39 41.3361 37.8364 41.3361 36.4192V17.8903C41.3361 16.4643 40.1725 15.3008 38.7553 15.3008ZM32.6437 17.6148H34.5446C34.9068 17.6148 35.2007 17.9087 35.2007 18.271C35.2007 18.6332 34.9068 18.9271 34.5446 18.9271H32.6437C32.2815 18.9271 31.9876 18.6332 31.9876 18.271C31.9876 17.9087 32.2815 17.6148 32.6437 17.6148ZM34.2046 36.6864H32.9838C32.6215 36.6864 32.3276 36.3925 32.3276 36.0303C32.3276 35.6681 32.6215 35.3742 32.9838 35.3742H34.2046C34.5668 35.3742 34.8607 35.6681 34.8607 36.0303C34.8607 36.3925 34.5668 36.6864 34.2046 36.6864ZM39.2305 33.9739H27.9572V20.3269H39.2305V33.9739Z" fill="white"/>
<path d="M36.3055 13.9885V2.54579C36.3055 1.14603 35.1682 0 33.7597 0H2.54574C1.13727 8.74831e-08 0 1.14603 0 2.54579V20.7685H24.539V17.8903C24.539 15.7382 26.2887 13.9885 28.432 13.9885H36.3055ZM3.14937 6.57875C2.88693 6.32507 2.88693 5.90511 3.14937 5.65143L5.43267 3.35938C5.69516 3.10564 6.10631 3.10564 6.35999 3.35938C6.62248 3.61306 6.62248 4.03296 6.35999 4.2867L4.07669 6.57875C3.8064 6.84914 3.37678 6.82245 3.14937 6.57875ZM9.76309 5.38899L5.17023 9.98186C4.92167 10.2303 4.52633 10.2463 4.24291 9.98186C3.98923 9.71936 3.98923 9.30822 4.24291 9.05454L8.83578 4.46167C9.08946 4.20794 9.50941 4.20794 9.76309 4.46167C10.0168 4.71535 10.0168 5.13526 9.76309 5.38899Z" fill="white"/>
</svg>
