<svg width="144" height="144" viewBox="0 0 144 144" fill="none" xmlns="http://www.w3.org/2000/svg">
<g clip-path="url(#clip0_261_24)">
<path d="M65.265 142.799C65.0141 142.804 64.7676 142.732 64.559 142.593C64.3504 142.453 64.1897 142.253 64.0987 142.019C64.0077 141.785 63.9909 141.529 64.0503 141.285C64.1098 141.041 64.2428 140.822 64.4313 140.656L73.7905 132.41L58.5826 141.598C58.3181 141.753 58.0046 141.804 57.7043 141.74C57.4041 141.675 57.1391 141.5 56.9618 141.25C56.7845 140.999 56.7079 140.691 56.7472 140.386C56.7866 140.082 56.9389 139.803 57.174 139.605L63.9202 134.054L54.3721 139.825C54.1048 139.981 53.7885 140.03 53.4867 139.962C53.1849 139.894 52.92 139.715 52.7452 139.46C52.5705 139.204 52.4988 138.892 52.5446 138.586C52.5905 138.281 52.7505 138.003 52.9924 137.81L54.6276 136.553L51.891 138.207C51.6387 138.36 51.3398 138.416 51.0493 138.366C50.7588 138.316 50.4962 138.162 50.3097 137.934C50.1231 137.706 50.0253 137.418 50.034 137.123C50.0428 136.828 50.1576 136.547 50.3573 136.33L56.0857 130.094L48.5289 134.652C48.2947 134.792 48.0206 134.849 47.7501 134.815C47.4797 134.781 47.2282 134.658 47.0357 134.465C46.8432 134.272 46.7206 134.02 46.6874 133.75C46.6541 133.479 46.7121 133.205 46.8522 132.972L49.6129 128.469L46.7093 130.224C46.5034 130.349 46.2655 130.41 46.0251 130.4C45.7847 130.39 45.5526 130.309 45.3578 130.168C45.163 130.027 45.014 129.832 44.9296 129.606C44.8452 129.381 44.829 129.136 44.883 128.902L45.3631 126.818C45.1237 126.72 44.9232 126.546 44.7924 126.322C44.6251 126.045 44.5746 125.713 44.6518 125.398C44.7291 125.083 44.9279 124.812 45.2047 124.644L46.4145 123.912C46.6202 123.788 46.8579 123.727 47.0979 123.737C47.3379 123.747 47.5697 123.827 47.7644 123.968C47.9591 124.109 48.1081 124.304 48.1928 124.529C48.2775 124.753 48.2942 124.998 48.2407 125.232L47.9185 126.635L52.6514 123.776C52.8856 123.636 53.1597 123.579 53.4302 123.613C53.7007 123.647 53.9521 123.77 54.1446 123.963C54.3371 124.156 54.4597 124.408 54.493 124.678C54.5262 124.949 54.4682 125.223 54.3281 125.456L51.5697 129.951L62.1487 123.562C62.4007 123.411 62.6985 123.356 62.9878 123.407C63.277 123.457 63.5385 123.61 63.7244 123.837C63.9103 124.065 64.0084 124.351 64.0006 124.645C63.9929 124.938 63.8799 125.219 63.6823 125.437L57.9563 131.673L71.7099 123.362C71.9771 123.202 72.2949 123.151 72.5987 123.218C72.9025 123.285 73.1695 123.465 73.3454 123.721C73.5214 123.977 73.5931 124.291 73.546 124.599C73.499 124.906 73.3366 125.184 73.092 125.376L71.4543 126.633L77.0777 123.237C77.3423 123.082 77.6558 123.031 77.956 123.095C78.2562 123.16 78.5213 123.335 78.6986 123.585C78.8758 123.836 78.9524 124.144 78.9131 124.449C78.8738 124.753 78.7214 125.032 78.4863 125.23L71.7401 130.778L84.2065 123.25C84.468 123.094 84.7782 123.041 85.0766 123.101C85.3751 123.162 85.6403 123.331 85.8204 123.576C86.0006 123.822 86.0829 124.126 86.0512 124.429C86.0194 124.731 85.876 125.011 85.6488 125.214L76.2849 133.47L83.7691 128.949C84.0306 128.793 84.3408 128.74 84.6393 128.801C84.9377 128.861 85.2029 129.031 85.3831 129.276C85.5633 129.522 85.6455 129.826 85.6138 130.128C85.582 130.431 85.4386 130.711 85.2114 130.914L81.8591 133.868C82.1537 133.952 82.4048 134.146 82.5605 134.41C82.7276 134.688 82.7778 135.02 82.7 135.335C82.6223 135.649 82.423 135.92 82.1458 136.088L73.0888 141.561C72.8273 141.717 72.5171 141.77 72.2187 141.709C71.9203 141.649 71.6551 141.479 71.4749 141.234C71.2947 140.988 71.2124 140.685 71.2442 140.382C71.2759 140.079 71.4193 139.799 71.6465 139.596L73.3312 138.118L65.8739 142.633C65.689 142.74 65.479 142.798 65.265 142.799Z" fill="black" fill-opacity="0.8"/>
<path d="M49.5322 128.436C49.2753 128.441 49.0233 128.366 48.8119 128.22C48.6005 128.074 48.4405 127.865 48.3544 127.623C48.2683 127.38 48.2605 127.117 48.3322 126.871C48.404 126.624 48.5515 126.406 48.7539 126.248L49.6554 125.527L45.254 128.186C44.9908 128.346 44.6768 128.401 44.3748 128.34C44.0729 128.279 43.805 128.106 43.6248 127.856C43.4445 127.607 43.3651 127.298 43.4024 126.992C43.4397 126.686 43.591 126.406 43.826 126.207L46.6652 123.797L42.4547 126.329C42.1951 126.486 41.8864 126.542 41.5885 126.484C41.2905 126.427 41.0246 126.26 40.8422 126.018C40.6598 125.775 40.574 125.474 40.6015 125.171C40.6289 124.869 40.7676 124.588 40.9906 124.382L43.2413 122.302L41.533 123.333C41.2851 123.482 40.9924 123.539 40.7067 123.493C40.4211 123.447 40.161 123.301 39.9727 123.081C39.7843 122.862 39.6798 122.583 39.6776 122.293C39.6755 122.004 39.7759 121.723 39.961 121.501L44.4504 116.127C44.4 115.879 44.4275 115.622 44.529 115.391C44.6304 115.16 44.801 114.965 45.0173 114.835L46.2271 114.103C46.4747 113.955 46.7666 113.9 47.0512 113.946C47.3358 113.993 47.5948 114.138 47.7827 114.357C47.9706 114.575 48.0753 114.853 48.0783 115.142C48.0812 115.43 47.9823 115.71 47.799 115.933L46.5314 117.452L52.2976 113.97C52.5568 113.815 52.864 113.762 53.1602 113.82C53.4563 113.879 53.7205 114.044 53.902 114.285C54.0835 114.526 54.1696 114.826 54.1437 115.127C54.1177 115.427 53.9817 115.708 53.7615 115.914L51.5084 117.994L58.3949 113.836C58.6581 113.679 58.9708 113.626 59.2711 113.688C59.5713 113.75 59.8374 113.923 60.0166 114.171C60.1957 114.42 60.275 114.727 60.2387 115.032C60.2024 115.336 60.0531 115.616 59.8204 115.816L56.9813 118.228L64.4825 113.702C64.7483 113.546 65.0634 113.495 65.3648 113.561C65.6662 113.627 65.9317 113.804 66.1081 114.057C66.2846 114.31 66.3591 114.62 66.3166 114.926C66.2741 115.231 66.1179 115.509 65.8791 115.705L64.98 116.423L69.6718 113.589C69.9249 113.436 70.2246 113.38 70.5158 113.431C70.8069 113.482 71.0698 113.637 71.2558 113.867C71.4419 114.096 71.5385 114.386 71.528 114.681C71.5174 114.976 71.4003 115.258 71.1983 115.474L65.6827 121.334L78.8219 113.407C79.0773 113.251 79.381 113.193 79.6756 113.246C79.9703 113.299 80.2355 113.457 80.4211 113.692C80.6067 113.927 80.6998 114.222 80.6829 114.52C80.666 114.819 80.5402 115.101 80.3293 115.314L74.974 120.737L84.1181 115.216C84.3758 115.053 84.6853 114.991 84.986 115.044C85.2868 115.096 85.557 115.259 85.7436 115.501C85.9303 115.743 86.0199 116.045 85.995 116.349C85.97 116.654 85.8323 116.938 85.6087 117.146L82.4549 120.23L87.5605 117.148C87.7891 117.011 88.0563 116.952 88.3215 116.98C88.5867 117.009 88.8354 117.123 89.0298 117.306C89.2241 117.488 89.3535 117.729 89.3982 117.992C89.4429 118.255 89.4005 118.526 89.2775 118.762L86.9496 123.234L88.8539 122.082C89.1316 121.916 89.4635 121.867 89.7771 121.946C90.0907 122.024 90.3606 122.224 90.5277 122.5C90.6949 122.777 90.7459 123.109 90.6695 123.423C90.5931 123.737 90.3956 124.008 90.12 124.177L84.4622 127.569C84.2337 127.706 83.9665 127.765 83.7012 127.737C83.436 127.708 83.1873 127.594 82.993 127.412C82.7987 127.229 82.6693 126.988 82.6246 126.725C82.5799 126.462 82.6222 126.192 82.7453 125.955L85.0732 121.486L74.6683 127.764C74.4107 127.928 74.1011 127.989 73.8004 127.937C73.4997 127.884 73.2295 127.721 73.0428 127.479C72.8562 127.238 72.7665 126.935 72.7915 126.631C72.8164 126.326 72.9542 126.043 73.1777 125.835L76.334 122.75L67.8266 127.9C67.5712 128.056 67.2675 128.114 66.9729 128.061C66.6782 128.009 66.413 127.85 66.2274 127.615C66.0418 127.38 65.9487 127.086 65.9656 126.787C65.9825 126.488 66.1083 126.206 66.3192 125.993L71.6697 120.573L59.2639 128.071C59.0109 128.222 58.7119 128.277 58.4218 128.225C58.1317 128.173 57.87 128.019 57.6847 127.789C57.4995 127.56 57.403 127.272 57.4132 126.978C57.4233 126.683 57.5393 126.402 57.7399 126.186L63.2555 120.327L50.1407 128.253C49.9576 128.366 49.7476 128.43 49.5322 128.436Z" fill="black" fill-opacity="0.8"/>
<path d="M92.3194 80.7157C92.0649 80.7207 91.8152 80.6463 91.6051 80.5028C91.3949 80.3593 91.2346 80.1538 91.1466 79.915C91.0586 79.6762 91.0472 79.4159 91.1141 79.1703C91.1809 78.9248 91.3226 78.7061 91.5194 78.5448L93.7219 76.7476C93.4803 76.7444 93.2451 76.6698 93.0459 76.5332C92.8466 76.3966 92.6922 76.2041 92.6021 75.98C92.5121 75.7558 92.4903 75.51 92.5396 75.2735C92.5889 75.0371 92.7071 74.8205 92.8793 74.651L93.7943 73.7463C93.6034 73.7887 93.4051 73.7848 93.2161 73.7349C93.027 73.685 92.8526 73.5905 92.7076 73.4593C92.5625 73.3282 92.451 73.1642 92.3824 72.9811C92.3137 72.798 92.2899 72.6011 92.313 72.4069L92.5958 70.0088C92.3109 70.1059 92.0003 70.0947 91.7231 69.9774C91.446 69.86 91.2218 69.6446 91.0934 69.3724C90.965 69.1003 90.9414 68.7903 91.027 68.5018C91.1127 68.2133 91.3016 67.9664 91.5577 67.8084L93.4693 66.6536C93.6651 66.5347 93.8903 66.4732 94.1194 66.476C94.3485 66.4788 94.5721 66.5458 94.765 66.6694C94.9579 66.7937 95.1119 66.9697 95.2096 67.1773C95.3072 67.3849 95.3446 67.6158 95.3174 67.8436L95.0388 70.2098L101.18 66.5048C101.438 66.3383 101.748 66.2745 102.051 66.3262C102.353 66.3778 102.625 66.5411 102.813 66.7837C103.001 67.0262 103.09 67.3304 103.065 67.6361C103.039 67.9417 102.899 68.2265 102.673 68.4341L101.953 69.1464L106.269 66.5381C106.535 66.3738 106.853 66.3171 107.158 66.3794C107.464 66.4417 107.734 66.6183 107.914 66.8733C108.094 67.1282 108.17 67.4422 108.126 67.751C108.082 68.0599 107.922 68.3404 107.678 68.5352L106.493 69.5016L107.521 68.8811C107.798 68.7292 108.123 68.6902 108.428 68.7721C108.732 68.854 108.994 69.0505 109.157 69.3207C109.321 69.5909 109.374 69.9137 109.305 70.2218C109.236 70.5299 109.05 70.7995 108.787 70.9741L92.9284 80.5566C92.7432 80.6628 92.5329 80.7177 92.3194 80.7157Z" fill="#DADADA" fill-opacity="0.8"/>
<path d="M70.0773 54.5088C69.8374 54.5136 69.6014 54.4478 69.3986 54.3196C69.1958 54.1914 69.0352 54.0064 68.9366 53.7877C68.8381 53.5689 68.806 53.326 68.8443 53.0892C68.8827 52.8523 68.9898 52.632 69.1523 52.4555L71.4344 49.9857L66.1836 53.1563C66.0461 53.2476 65.8915 53.3102 65.7291 53.3402C65.5668 53.3703 65.4 53.3671 65.2389 53.3311C65.0778 53.295 64.9257 53.2267 64.7916 53.1303C64.6576 53.0339 64.5444 52.9114 64.459 52.7701C64.3735 52.6288 64.3175 52.4717 64.2944 52.3083C64.2712 52.1448 64.2813 51.9783 64.3242 51.8189C64.367 51.6594 64.4416 51.5103 64.5436 51.3804C64.6456 51.2506 64.7727 51.1427 64.9175 51.0633L77.5604 43.4232C77.8129 43.2687 78.1129 43.2111 78.4047 43.2608C78.6964 43.3105 78.9603 43.4643 79.1475 43.6936C79.3346 43.9229 79.4323 44.2123 79.4225 44.5082C79.4127 44.804 79.296 45.0862 79.0941 45.3027L76.812 47.7701L77.2959 47.4764C77.5727 47.3245 77.8975 47.2854 78.2024 47.3673C78.5073 47.4492 78.7688 47.6458 78.9323 47.9159C79.0957 48.1861 79.1484 48.5089 79.0794 48.817C79.0104 49.1252 78.8251 49.3947 78.562 49.5694L70.6786 54.3328C70.4974 54.4438 70.2898 54.5045 70.0773 54.5088Z" fill="#DADADA" fill-opacity="0.8"/>
<path d="M52.2054 118.588C51.9428 118.593 51.6855 118.514 51.4716 118.361C51.2577 118.209 51.0985 117.992 51.0175 117.742C50.9365 117.492 50.9379 117.223 51.0217 116.974C51.1055 116.725 51.2671 116.51 51.4826 116.36L75.0586 99.9429L44.4977 118.406C44.2239 118.564 43.8998 118.61 43.593 118.534C43.2863 118.458 43.0207 118.267 42.8519 118C42.683 117.733 42.624 117.411 42.6871 117.101C42.7502 116.792 42.9305 116.518 43.1905 116.339L53.3014 109.689L41.8683 116.595C41.5951 116.747 41.2744 116.788 40.9718 116.711C40.6692 116.633 40.4076 116.443 40.2406 116.179C40.0735 115.915 40.0137 115.598 40.0733 115.291C40.1329 114.984 40.3074 114.712 40.5611 114.53L57.8423 103.09L40.7544 113.414C40.4818 113.591 40.1504 113.652 39.8328 113.584C39.5153 113.516 39.2377 113.325 39.0611 113.053C38.8845 112.78 38.8235 112.449 38.8913 112.131C38.9591 111.814 39.1504 111.536 39.4229 111.359L50.3846 103.78L39.8057 110.174C39.5322 110.349 39.2004 110.408 38.8833 110.338C38.5662 110.269 38.2897 110.076 38.1148 109.802C37.9398 109.529 37.8806 109.197 37.9503 108.88C38.02 108.563 38.2128 108.286 38.4863 108.111L41.5719 106.022L38.7723 107.714C38.5007 107.873 38.1781 107.922 37.8716 107.85C37.565 107.777 37.2982 107.59 37.1264 107.326C36.9547 107.062 36.8912 106.742 36.9494 106.432C37.0075 106.123 37.1826 105.847 37.4384 105.664L48.9417 97.6105L37.1384 104.739C36.8679 104.893 36.5489 104.938 36.2463 104.866C35.9437 104.793 35.6802 104.607 35.5094 104.347C35.3385 104.087 35.2732 103.772 35.3267 103.465C35.3802 103.158 35.5485 102.884 35.7973 102.697L51.4926 91.5477L34.8451 101.606C34.5715 101.766 34.2465 101.814 33.9385 101.74C33.6304 101.665 33.3633 101.474 33.1933 101.206C33.0233 100.939 32.9638 100.616 33.0271 100.305C33.0904 99.9946 33.2718 99.7208 33.5329 99.5412L35.9496 97.9257L33.075 99.6629C32.8026 99.8282 32.4766 99.8808 32.166 99.8095C31.8555 99.7382 31.5851 99.5487 31.412 99.2811C31.239 99.0136 31.1771 98.6892 31.2395 98.3768C31.3018 98.0643 31.4835 97.7885 31.7459 97.6079L43.4298 89.5192L30.8475 97.1287C30.5786 97.2918 30.2573 97.3452 29.9501 97.2778C29.6429 97.2104 29.3735 97.0274 29.1976 96.7667C29.0218 96.506 28.9529 96.1876 29.0055 95.8776C29.058 95.5675 29.2279 95.2896 29.4798 95.1014L47.0496 81.9242L28.0791 93.3833C27.8086 93.5373 27.4896 93.5825 27.187 93.5096C26.8844 93.4368 26.6209 93.2515 26.4501 92.9913C26.2793 92.7311 26.214 92.4157 26.2675 92.109C26.3209 91.8024 26.4892 91.5277 26.7381 91.3407L36.2206 84.6158L26.3527 90.5599C26.0822 90.7139 25.7633 90.7591 25.4606 90.6863C25.158 90.6134 24.8945 90.4281 24.7237 90.1679C24.5529 89.9077 24.4876 89.5923 24.5411 89.2857C24.5946 88.979 24.7628 88.7043 25.0117 88.5174L36.602 80.2835L24.772 87.425C24.5024 87.593 24.1782 87.6496 23.8677 87.583C23.5572 87.5164 23.2847 87.3317 23.1078 87.0679C22.9309 86.8041 22.8635 86.482 22.9197 86.1694C22.9759 85.8568 23.1514 85.5783 23.4091 85.3927L41.9506 71.6991L23.0768 83.095C22.8053 83.2503 22.4847 83.2958 22.1807 83.2222C21.8768 83.1486 21.6125 82.9615 21.4422 82.6992C21.2718 82.4369 21.2084 82.1194 21.2647 81.8118C21.3211 81.5041 21.4931 81.2297 21.7454 81.0449L31.5881 74.2075L22.1512 79.903C21.8779 80.0659 21.5519 80.1159 21.2423 80.0426C20.9328 79.9693 20.6639 79.7783 20.4927 79.5102C20.3215 79.2421 20.2614 78.9178 20.3251 78.6061C20.3889 78.2944 20.5715 78.0198 20.8342 77.8404L35.4049 68.0142L21.4458 76.4593C21.1728 76.6255 20.8456 76.6782 20.5342 76.6064C20.2227 76.5345 19.9517 76.3436 19.7791 76.0746C19.6065 75.8056 19.546 75.4798 19.6104 75.1667C19.6749 74.8537 19.8592 74.5782 20.124 74.3993L35.1837 64.1666L20.9876 72.756C20.7176 72.914 20.3973 72.9627 20.0926 72.892C19.7879 72.8213 19.5218 72.6366 19.3489 72.3759C19.1761 72.1152 19.1096 71.7982 19.1631 71.4899C19.2167 71.1817 19.3862 70.9057 19.6368 70.7186L39.5039 56.325L20.8721 67.5766C20.6013 67.7444 20.2757 67.8001 19.9645 67.7318C19.6533 67.6634 19.3811 67.4764 19.2055 67.2105C19.03 66.9447 18.965 66.6208 19.0244 66.3078C19.0838 65.9948 19.2629 65.7173 19.5237 65.5342L37.5488 52.5904L21.3901 62.3576C21.1185 62.517 20.7959 62.5656 20.4894 62.4934C20.1828 62.4211 19.916 62.2335 19.7442 61.9695C19.5725 61.7055 19.509 61.3855 19.5672 61.076C19.6253 60.7665 19.8004 60.4912 20.0562 60.3075L32.7914 51.3971L22.3865 57.6776C22.1158 57.8396 21.793 57.8908 21.4855 57.8206C21.1779 57.7504 20.9094 57.5641 20.7358 57.3007C20.5622 57.0373 20.497 56.717 20.5538 56.4067C20.6106 56.0964 20.785 55.82 21.0406 55.6351L36.7055 44.4378L24.4547 51.8473C24.1872 52.0043 23.87 52.0539 23.5673 51.986C23.2646 51.9182 22.999 51.738 22.824 51.4818C22.6491 51.2256 22.578 50.9125 22.625 50.6059C22.6721 50.2993 22.8338 50.022 23.0774 49.83L39.6183 37.1214L29.2957 43.3537C29.0285 43.5128 28.7107 43.5642 28.4069 43.4974C28.1031 43.4307 27.8361 43.2508 27.6602 42.9943C27.4842 42.7378 27.4125 42.424 27.4596 42.1165C27.5066 41.8091 27.669 41.531 27.9136 41.339L34.9075 35.9346C34.7246 35.8273 34.5727 35.6744 34.4666 35.4908C34.3606 35.3072 34.304 35.0992 34.3025 34.8872C34.301 34.6752 34.3546 34.4664 34.458 34.2813C34.5614 34.0962 34.7112 33.9411 34.8926 33.8313L47.4433 26.2347C47.7106 26.0756 48.0284 26.0242 48.3322 26.091C48.6359 26.1577 48.9029 26.3376 49.0789 26.5941C49.2548 26.8506 49.3265 27.1644 49.2795 27.4719C49.2324 27.7794 49.07 28.0574 48.8254 28.2494L46.2305 30.2602L57.1773 23.6457C57.4449 23.4852 57.7636 23.433 58.0684 23.4997C58.3732 23.5664 58.6411 23.747 58.8172 24.0045C58.9934 24.2621 59.0645 24.5771 59.0161 24.8854C58.9678 25.1936 58.8035 25.4718 58.557 25.663L42.016 38.3642L62.6779 25.8869C62.9485 25.7293 63.2692 25.6814 63.5741 25.753C63.879 25.8246 64.1448 26.0104 64.3169 26.272C64.489 26.5336 64.5543 26.8513 64.4993 27.1596C64.4443 27.4679 64.2733 27.7434 64.0214 27.9294L48.3614 39.1266L62.7683 30.4228C63.0394 30.2692 63.3589 30.2247 63.6616 30.2985C63.9644 30.3722 64.2276 30.5586 64.3977 30.8197C64.5678 31.0808 64.6319 31.3969 64.577 31.7036C64.522 32.0103 64.3522 32.2846 64.1021 32.4704L51.3574 41.3909L62.851 34.4471C63.1217 34.2851 63.4445 34.2339 63.752 34.3041C64.0596 34.3743 64.3282 34.5605 64.5017 34.824C64.6753 35.0874 64.7405 35.4076 64.6837 35.7179C64.6269 36.0283 64.4526 36.3047 64.1969 36.4895L46.1789 49.4161L63.3104 39.0662C63.5808 38.9016 63.9045 38.8481 64.2136 38.917C64.5226 38.986 64.7929 39.1719 64.9677 39.4359C65.1425 39.6999 65.2083 40.0214 65.1511 40.3328C65.0939 40.6443 64.9183 40.9214 64.6612 41.1061L44.7965 55.4972L73.2716 38.2947C73.544 38.1375 73.8666 38.0912 74.1723 38.1654C74.478 38.2396 74.7433 38.4287 74.9133 38.6934C75.0834 38.9581 75.145 39.278 75.0854 39.5869C75.0258 39.8958 74.8496 40.1699 74.5933 40.3523L59.5336 50.5849L76.1884 40.5213C76.4619 40.3463 76.7938 40.2872 77.1109 40.3569C77.428 40.4266 77.7045 40.6194 77.8794 40.8929C78.0544 41.1664 78.1135 41.4982 78.0438 41.8153C77.9742 42.1325 77.7813 42.4089 77.5078 42.5839L62.9203 52.4251L63.2059 52.2529C63.4773 52.0976 63.7979 52.052 64.1019 52.1256C64.4058 52.1992 64.6701 52.3864 64.8405 52.6487C65.0108 52.911 65.0743 53.2285 65.0179 53.5361C64.9615 53.8437 64.7895 54.1181 64.5373 54.3029L54.7091 61.1327L63.2966 55.9464C63.5657 55.7894 63.8844 55.7409 64.1879 55.8107C64.4915 55.8806 64.757 56.0635 64.9304 56.3222C65.1038 56.581 65.1721 56.8961 65.1213 57.2034C65.0705 57.5107 64.9044 57.7871 64.657 57.9763L46.1154 71.6675L63.426 61.2088C63.6971 61.0441 64.0214 60.9911 64.3308 61.0609C64.6402 61.1307 64.9104 61.3179 65.0846 61.5829C65.2587 61.848 65.3232 62.1703 65.2644 62.4819C65.2057 62.7936 65.0282 63.0703 64.7695 63.2537L53.1914 71.4848L63.5259 65.24C63.7969 65.0805 64.1189 65.0313 64.4251 65.1027C64.7313 65.1741 64.9984 65.3606 65.1708 65.6235C65.3433 65.8865 65.4079 66.2057 65.3513 66.5151C65.2948 66.8244 65.1214 67.1001 64.867 67.285L55.3751 74.0297L66.6822 67.1925C66.9506 67.0307 67.2709 66.9779 67.577 67.0452C67.8831 67.1124 68.1518 67.2945 68.3277 67.554C68.5042 67.8142 68.5738 68.1323 68.522 68.4425C68.4703 68.7526 68.3013 69.031 68.0499 69.2198L50.4873 82.392L75.9523 67.0078C76.2241 66.8505 76.546 66.8038 76.8513 66.8772C77.1566 66.9506 77.4221 67.1385 77.5927 67.4021C77.7634 67.6657 77.8263 67.9848 77.7683 68.2935C77.7103 68.6021 77.536 68.8766 77.2813 69.0603L65.6094 77.1341L79.4017 68.8001C79.6754 68.6323 80.0042 68.5787 80.317 68.651C80.6299 68.7232 80.9018 68.9155 81.0743 69.1864C81.2467 69.4573 81.3058 69.785 81.2388 70.0991C81.1718 70.4131 80.9842 70.6883 80.7162 70.8652L78.2586 72.5109L78.428 72.4095C78.699 72.2449 79.0234 72.1919 79.3328 72.2617C79.6422 72.3315 79.9124 72.5186 80.0865 72.7837C80.2607 73.0487 80.3252 73.371 80.2664 73.6827C80.2076 73.9943 80.0302 74.271 79.7715 74.4545L64.0763 85.6058L78.8244 76.6944C79.0961 76.5296 79.4212 76.477 79.7311 76.5475C80.0409 76.6181 80.3112 76.8064 80.4847 77.0726C80.6583 77.3389 80.7215 77.6621 80.661 77.9741C80.6005 78.2861 80.4211 78.5623 80.1607 78.7444L68.6718 86.7876L80.7195 79.5071C80.993 79.3318 81.3249 79.2724 81.6423 79.3418C81.9596 79.4113 82.2364 79.6039 82.4117 79.8775C82.587 80.151 82.6464 80.4829 82.577 80.8002C82.5075 81.1176 82.3149 81.3943 82.0414 81.5696L78.9365 83.6714L83.2557 81.0655C83.5281 80.9002 83.8542 80.8476 84.1647 80.9189C84.4752 80.9902 84.7457 81.1797 84.9187 81.4473C85.0917 81.7148 85.1536 82.0392 85.0912 82.3516C85.0289 82.6641 84.8472 82.9399 84.5848 83.1205L73.6398 90.6851L107.445 70.2566C107.719 70.1052 108.039 70.064 108.342 70.1413C108.645 70.2187 108.906 70.4088 109.073 70.6727C109.24 70.9366 109.3 71.2543 109.24 71.5609C109.181 71.8675 109.006 72.1397 108.753 72.3219L91.469 83.7645L106.955 74.3951C107.229 74.2218 107.562 74.1645 107.878 74.2361C108.195 74.3076 108.47 74.502 108.644 74.7765C108.817 75.0511 108.874 75.3832 108.803 75.6999C108.731 76.0166 108.537 76.2919 108.262 76.4653L98.1101 83.1399L106.134 78.2929C106.406 78.1309 106.73 78.0806 107.038 78.1525C107.346 78.2244 107.615 78.4129 107.787 78.6785C107.959 78.944 108.022 79.266 107.962 79.5768C107.902 79.8876 107.724 80.1631 107.465 80.3454L83.8774 96.7771L103.927 84.6647C104.199 84.5052 104.523 84.457 104.83 84.5301C105.136 84.6032 105.403 84.792 105.574 85.057C105.745 85.3221 105.808 85.643 105.748 85.9528C105.688 86.2626 105.511 86.5373 105.254 86.7197L93.5086 94.8048L101.01 90.2768C101.278 90.1142 101.599 90.061 101.906 90.1283C102.213 90.1956 102.482 90.3781 102.658 90.6382C102.834 90.8987 102.903 91.2171 102.851 91.5272C102.799 91.8374 102.629 92.1156 102.377 92.3041L87.6591 103.323L93.9626 99.5245C94.2233 99.3652 94.5341 99.3091 94.834 99.3673C95.1339 99.4255 95.4012 99.5937 95.5834 99.8389C95.7657 100.084 95.8496 100.389 95.8188 100.692C95.788 100.996 95.6447 101.278 95.417 101.481L86.827 109.244L90.166 107.218C90.4235 107.075 90.7239 107.03 91.0122 107.09C91.3005 107.151 91.5574 107.313 91.7356 107.548C91.9138 107.782 92.0014 108.073 91.9824 108.367C91.9634 108.661 91.8391 108.939 91.6321 109.148L90.1439 110.535C90.392 110.573 90.6222 110.687 90.8033 110.861C90.9844 111.035 91.1077 111.26 91.1565 111.507C91.2052 111.753 91.1771 112.008 91.0758 112.238C90.9746 112.468 90.8051 112.661 90.5905 112.791L82.296 117.817C82.0386 117.96 81.7381 118.006 81.4498 117.945C81.1615 117.885 80.9047 117.722 80.7264 117.488C80.5482 117.253 80.4606 116.962 80.4796 116.668C80.4986 116.374 80.623 116.097 80.8299 115.887L81.311 115.452L77.1974 117.931C76.937 118.087 76.6278 118.141 76.3299 118.082C76.032 118.023 75.7667 117.856 75.5854 117.612C75.4041 117.368 75.3198 117.066 75.349 116.764C75.3781 116.462 75.5185 116.181 75.743 115.976L84.3355 108.214L67.9344 118.103C67.6656 118.267 67.3442 118.32 67.0371 118.253C66.7299 118.185 66.4604 118.002 66.2846 117.741C66.1087 117.481 66.0399 117.162 66.0924 116.852C66.145 116.542 66.3148 116.264 66.5667 116.076L81.268 105.06L59.3963 118.274C59.1246 118.427 58.8045 118.471 58.5016 118.396C58.1987 118.322 57.9356 118.134 57.7663 117.872C57.5969 117.61 57.534 117.293 57.5904 116.986C57.6468 116.679 57.8183 116.406 58.0697 116.221L69.8294 108.128L52.8139 118.405C52.6308 118.518 52.4209 118.582 52.2054 118.588Z" fill="#DADADA" fill-opacity="0.8"/>
<path d="M62.8741 85.3896C62.6093 85.3949 62.3499 85.3141 62.1349 85.1595C61.9397 85.0156 61.7917 84.817 61.7096 84.5889C61.6274 84.3607 61.6149 84.1134 61.6735 83.8781L62.4421 80.7895L56.9347 84.1097C56.6569 84.275 56.325 84.3238 56.0114 84.2453C55.6978 84.1669 55.428 83.9675 55.2608 83.6909C55.0936 83.4142 55.0427 83.0826 55.119 82.7685C55.1954 82.4544 55.3929 82.1832 55.6685 82.0142L63.7019 77.1597C63.9094 77.0347 64.1493 76.9741 64.3913 76.9856C64.6332 76.997 64.8664 77.08 65.0611 77.224C65.2559 77.368 65.4036 77.5665 65.4855 77.7945C65.5674 78.0224 65.5799 78.2696 65.5213 78.5046L64.6484 82.014C64.894 82.0572 65.1205 82.1743 65.2977 82.3498C65.4749 82.5252 65.5943 82.7506 65.6399 82.9957C65.6856 83.2408 65.6552 83.4941 65.553 83.7215C65.4508 83.9489 65.2816 84.1398 65.068 84.2684L63.4806 85.2257C63.2954 85.3302 63.0868 85.3866 62.8741 85.3896Z" fill="#5A4FF5" fill-opacity="0.8"/>
<path d="M58.6809 118.46C58.4432 118.464 58.2092 118.399 58.0077 118.273C57.8062 118.147 57.6459 117.964 57.5463 117.748C57.4466 117.532 57.4121 117.292 57.4467 117.057C57.4814 116.822 57.5839 116.602 57.7416 116.424L58.7619 115.272L53.5884 118.39C53.3354 118.542 53.0356 118.598 52.7444 118.547C52.4533 118.496 52.1904 118.342 52.0044 118.112C51.8183 117.882 51.7217 117.593 51.7322 117.298C51.7428 117.002 51.8599 116.721 52.0619 116.505L57.8557 110.353L44.5232 118.409C44.2556 118.569 43.9368 118.621 43.632 118.555C43.3272 118.488 43.0593 118.307 42.8832 118.05C42.7071 117.792 42.6359 117.477 42.6843 117.169C42.7326 116.861 42.8969 116.583 43.1434 116.391L46.9468 113.46L41.8364 116.547C41.5682 116.707 41.2492 116.758 40.9445 116.69C40.6397 116.623 40.3724 116.441 40.1971 116.183C40.0219 115.925 39.9519 115.609 40.0014 115.301C40.051 114.993 40.2165 114.715 40.464 114.525L45.4601 110.742L40.7828 113.566C40.5145 113.73 40.1936 113.784 39.8864 113.718C39.5792 113.651 39.3093 113.469 39.1326 113.209C38.9559 112.949 38.8859 112.632 38.9372 112.321C38.9884 112.011 39.1569 111.733 39.4079 111.544L40.8553 110.447L40.0664 110.921C39.8116 111.073 39.5103 111.127 39.2186 111.073C38.9268 111.02 38.6644 110.862 38.4802 110.629C38.296 110.397 38.2024 110.105 38.217 109.809C38.2315 109.513 38.3531 109.232 38.5592 109.019L45.2069 102.213L38.1534 106.473C37.8988 106.623 37.5987 106.675 37.3083 106.621C37.0179 106.567 36.7568 106.41 36.5732 106.179C36.3896 105.947 36.2959 105.657 36.3093 105.362C36.3227 105.067 36.4424 104.787 36.6462 104.573L42.6455 98.4097L35.6452 102.634C35.3854 102.787 35.0782 102.839 34.7826 102.779C34.4869 102.72 34.2236 102.553 34.0431 102.312C33.8626 102.07 33.7776 101.771 33.8044 101.47C33.8313 101.17 33.968 100.89 34.1884 100.684L40.401 95.026L32.9362 99.5337C32.6692 99.6916 32.3523 99.7422 32.0495 99.6754C31.7466 99.6086 31.4804 99.4294 31.3046 99.1739C31.1288 98.9184 31.0566 98.6057 31.1024 98.299C31.1483 97.9922 31.3089 97.7144 31.5517 97.5214L47.1582 85.3629L29.7897 95.8595C29.5192 96.0242 29.1955 96.0777 28.8865 96.0087C28.5774 95.9398 28.3071 95.7538 28.1323 95.4898C27.9575 95.2258 27.8918 94.9043 27.9489 94.5929C28.0061 94.2815 28.1817 94.0043 28.4389 93.8196L39.2468 86.0128L27.7725 92.9464C27.5002 93.1117 27.1741 93.1642 26.8636 93.093C26.5531 93.0217 26.2826 92.8321 26.1096 92.5646C25.9366 92.2971 25.8747 91.9727 25.937 91.6603C25.9994 91.3478 26.1811 91.072 26.4435 90.8914L27.7817 89.966L26.4509 90.7688C26.1809 90.9268 25.8606 90.9755 25.5559 90.9048C25.2512 90.8341 24.9851 90.6494 24.8122 90.3887C24.6394 90.128 24.5729 89.8109 24.6264 89.5027C24.68 89.1945 24.8495 88.9185 25.1001 88.7314L30.4376 84.8734L25.0851 88.1023C24.8199 88.2599 24.505 88.3116 24.2033 88.247C23.9017 88.1824 23.6355 88.0063 23.4581 87.7539C23.2807 87.5015 23.2052 87.1915 23.2465 86.8858C23.2879 86.58 23.4432 86.3012 23.6813 86.1051L33.5617 78.0841L23.4473 84.1948C23.1806 84.3547 22.8631 84.4072 22.5591 84.3415C22.2552 84.2758 21.9876 84.0968 21.8107 83.841C21.6339 83.5852 21.561 83.2717 21.607 82.9642C21.6529 82.6566 21.8141 82.378 22.058 82.185L32.773 73.7728L22.223 80.1443C21.9782 80.2918 21.6894 80.349 21.4069 80.3059C21.1243 80.2628 20.8657 80.1223 20.6759 79.9085C20.4861 79.6948 20.3771 79.4214 20.3678 79.1357C20.3584 78.85 20.4494 78.5701 20.6248 78.3444L24.4335 73.4688L21.288 75.373C21.0901 75.4926 20.8624 75.5538 20.6312 75.5494C20.4001 75.545 20.1749 75.4752 19.9817 75.3481C19.7886 75.2211 19.6353 75.0419 19.5398 74.8313C19.4443 74.6208 19.4103 74.3875 19.4418 74.1584L19.8815 71.0299C19.6527 70.9635 19.4483 70.8318 19.2933 70.651C19.1382 70.4702 19.0393 70.2481 19.0086 70.012C18.9779 69.7758 19.0168 69.5358 19.1204 69.3213C19.2241 69.1069 19.3881 68.9274 19.5922 68.8047L20.7342 68.1085C20.9321 67.9889 21.1598 67.9278 21.3909 67.9322C21.6221 67.9366 21.8473 68.0063 22.0405 68.1334C22.2336 68.2605 22.3868 68.4397 22.4824 68.6502C22.5779 68.8608 22.6119 69.0941 22.5804 69.3231L22.2092 71.9581L28.8513 67.9468C29.0962 67.7993 29.3849 67.7421 29.6675 67.7852C29.95 67.8282 30.2086 67.9688 30.3984 68.1825C30.5882 68.3963 30.6972 68.6697 30.7066 68.9554C30.7159 69.241 30.625 69.521 30.4496 69.7466L26.6286 74.6225L48.6384 61.3324C48.9051 61.1724 49.2226 61.12 49.5266 61.1857C49.8306 61.2513 50.0981 61.4303 50.275 61.6861C50.4518 61.9419 50.5247 62.2554 50.4788 62.563C50.4328 62.8705 50.2716 63.1491 50.0277 63.3421L39.2956 71.7547L47.3847 66.8697C47.65 66.7089 47.9663 66.6549 48.2699 66.7184C48.5734 66.7819 48.8416 66.9582 49.0201 67.2118C49.1987 67.4654 49.2743 67.7773 49.2318 68.0845C49.1893 68.3917 49.0317 68.6713 48.791 68.8668L38.9106 76.8853L54.6364 67.3961C54.9069 67.2314 55.2306 67.178 55.5396 67.2469C55.8487 67.3158 56.119 67.5018 56.2938 67.7658C56.4686 68.0298 56.5343 68.3513 56.4772 68.6627C56.42 68.9742 56.2444 69.2513 55.9872 69.436L50.6593 73.284L60.6527 67.2468C60.9251 67.0816 61.2512 67.029 61.5617 67.1003C61.8722 67.1716 62.1427 67.3611 62.3157 67.6286C62.4887 67.8961 62.5506 68.2206 62.4882 68.533C62.4259 68.8454 62.2442 69.1212 61.9818 69.3019L60.6267 70.2398L63.5303 68.4874C63.8002 68.3329 64.1188 68.287 64.4213 68.3588C64.7238 68.4307 64.9877 68.615 65.1592 68.8743C65.3308 69.1336 65.3973 69.4485 65.3452 69.7551C65.2931 70.0616 65.1263 70.3368 64.8786 70.5249L54.0683 78.3317L63.6117 72.568C63.8786 72.4101 64.1955 72.3595 64.4984 72.4263C64.8012 72.4931 65.0674 72.6723 65.2432 72.9278C65.419 73.1833 65.4913 73.496 65.4454 73.8027C65.3996 74.1095 65.239 74.3873 64.9962 74.5803L49.3774 86.7415L49.8469 86.4603C50.107 86.3045 50.4157 86.2508 50.7131 86.3096C51.0105 86.3684 51.2756 86.5354 51.4569 86.7784C51.6382 87.0214 51.723 87.323 51.6947 87.6249C51.6663 87.9267 51.527 88.2073 51.3037 88.4124L45.0862 94.0707L49.5337 91.3862C49.7882 91.2364 50.0884 91.1835 50.3788 91.2376C50.6692 91.2916 50.9303 91.4488 51.1139 91.6802C51.2975 91.9116 51.3912 92.2016 51.3778 92.4967C51.3644 92.7918 51.2447 93.0721 51.0408 93.2859L45.0416 99.4516L52.1458 95.1544C52.4006 95.0025 52.7019 94.9483 52.9936 95.0019C53.2854 95.0555 53.5478 95.2132 53.732 95.4457C53.9162 95.6782 54.0098 95.9696 53.9952 96.2659C53.9807 96.5622 53.8591 96.8431 53.653 97.0565L47.0078 103.862L59.184 96.5177C59.4522 96.3539 59.7732 96.2996 60.0804 96.366C60.3875 96.4324 60.6574 96.6144 60.8341 96.8743C61.0108 97.1342 61.0808 97.4521 61.0296 97.7622C60.9783 98.0722 60.8098 98.3507 60.5589 98.54L59.1284 99.6264L64.0863 96.6306C64.3545 96.4709 64.6736 96.4196 64.9783 96.4874C65.283 96.5551 65.5503 96.7367 65.7256 96.9949C65.9009 97.2532 65.9709 97.5687 65.9213 97.8769C65.8717 98.1851 65.7063 98.4627 65.4588 98.6529L60.4459 102.453L64.1723 100.204C64.4398 100.047 64.757 99.9976 65.0597 100.065C65.3623 100.133 65.628 100.314 65.8029 100.57C65.9778 100.826 66.0489 101.139 66.0019 101.446C65.9549 101.752 65.7932 102.03 65.5495 102.222L61.7559 105.15L64.2626 103.631C64.5156 103.478 64.8154 103.422 65.1066 103.473C65.3977 103.524 65.6606 103.679 65.8466 103.908C66.0327 104.138 66.1293 104.427 66.1187 104.723C66.1081 105.018 65.991 105.3 65.789 105.515L59.9953 111.667L64.3895 109.013C64.64 108.863 64.9361 108.807 65.2243 108.856C65.5124 108.905 65.7736 109.055 65.9606 109.279C66.1476 109.504 66.248 109.788 66.2438 110.08C66.2395 110.373 66.1309 110.654 65.9374 110.873L64.7998 112.157C65.0099 112.103 65.2304 112.107 65.4388 112.167C65.6471 112.226 65.8359 112.341 65.9857 112.497C66.1355 112.654 66.241 112.847 66.2915 113.058C66.342 113.269 66.3356 113.49 66.2729 113.697L65.7815 115.333C65.9629 115.435 66.1145 115.583 66.221 115.762C66.3881 116.04 66.4383 116.373 66.3606 116.687C66.2829 117.002 66.0835 117.273 65.8063 117.441L64.5964 118.17C64.3848 118.298 64.1395 118.359 63.8926 118.345C63.6458 118.33 63.4091 118.242 63.2137 118.09C63.0182 117.939 62.8732 117.732 62.7977 117.496C62.7222 117.261 62.7198 117.008 62.7907 116.771L63.0209 116.032L59.309 118.273C59.121 118.392 58.9035 118.457 58.6809 118.46Z" fill="#5A4FF5" fill-opacity="0.8"/>
<path d="M35.9133 67.7467C35.7292 67.7501 35.5468 67.7121 35.3795 67.6353C35.2122 67.5585 35.0643 67.4449 34.947 67.3031C34.7595 67.077 34.6595 66.791 34.6653 66.4973C34.6712 66.2036 34.7824 65.9218 34.9788 65.7034L39.5954 60.5741L35.4263 63.0913C35.1807 63.2399 34.8908 63.2975 34.6071 63.254C34.3234 63.2106 34.0641 63.0688 33.8743 62.8536C33.6845 62.6383 33.5763 62.3632 33.5687 62.0763C33.5612 61.7894 33.6546 61.509 33.8328 61.284L36.1714 58.3331C35.9493 58.3573 35.7252 58.3139 35.5282 58.2086C35.3312 58.1033 35.1706 57.941 35.0674 57.7429C34.9001 57.4655 34.8496 57.1331 34.9268 56.8185C35.0041 56.504 35.2029 56.2328 35.4797 56.0645L40.4425 53.0662C40.688 52.9176 40.9779 52.86 41.2616 52.9035C41.5453 52.947 41.8047 53.0887 41.9945 53.304C42.1843 53.5192 42.2924 53.7943 42.3 54.0812C42.3076 54.3681 42.2141 54.6485 42.036 54.8735L39.9601 57.4935L45.3851 54.2166C45.6362 54.0661 45.9328 54.0105 46.2213 54.0599C46.5099 54.1094 46.7711 54.2605 46.9577 54.486C47.1443 54.7115 47.244 54.9964 47.2386 55.2891C47.2332 55.5817 47.1231 55.8628 46.9283 56.0813L42.3165 61.208L48.1238 57.703C48.4006 57.5511 48.7254 57.5121 49.0304 57.594C49.3353 57.6759 49.5968 57.8725 49.7602 58.1426C49.9236 58.4128 49.9764 58.7356 49.9074 59.0437C49.8384 59.3519 49.653 59.6214 49.39 59.7961L36.5196 67.5705C36.3369 67.6824 36.1275 67.7432 35.9133 67.7467Z" fill="#5A4FF5" fill-opacity="0.8"/>
<path d="M107.739 66.4009C103.306 66.979 90.0707 63.3418 90.7698 70.285C97.0061 83.5093 77.4249 84.9673 81.3042 71.2254C85.4336 63.2701 70.0219 68.0048 65.9711 67.0007C66.0997 62.3943 65.4053 58.6394 65.5559 53.5403C84.6276 60.5508 84.3773 30.3004 65.3675 38.9245C64.9527 34.4563 65.4781 29.7318 65.0463 25.2664C50.1977 17.464 27.4582 36.6509 21.8685 51.0757C10.4778 73.9961 26.8287 92.9157 37.8676 111.204C38.657 113.951 38.8792 117.11 41.9628 118.241C40.945 118.755 40.1264 119.592 39.635 120.621C39.1435 121.65 39.0069 122.813 39.2466 123.927C39.4863 125.042 40.0887 126.046 40.9596 126.782C41.8305 127.518 42.9208 127.944 44.0599 127.995C46.5884 148.701 84.9823 147.154 86.7158 126.745C91.5313 125.814 93.4215 119.165 88.7473 116.738C93.2699 113.526 91.731 106.717 95.1812 102.527C101.611 93.7394 115.457 76.6767 107.739 66.4009ZM93.0061 68.8323L92.7863 68.9885C92.6041 69.0583 92.6059 68.784 93.0061 68.8323ZM62.7509 83.4647C62.7025 83.62 62.381 83.5823 62.7509 83.4647ZM28.1667 45.5358C29.6208 38.0158 63.9052 14.9477 61.6685 30.8755C59.728 50.2379 67.9589 34.896 75.4475 42.5193C76.06 43.3199 76.4639 44.2602 76.6228 45.2556C76.7818 46.251 76.6908 47.2703 76.3582 48.2218C76.0255 49.1733 75.4615 50.0272 74.717 50.7067C73.9725 51.3862 73.0707 51.87 72.0928 52.1146C57.4785 47.5866 63.1453 57.793 62.3951 67.334C59.5556 66.531 47.1381 69.9987 50.5715 64.969C55.4986 46.1739 24.7813 52.2372 34.6856 67.9058C30.4498 67.9388 26.2209 68.0745 21.9857 68.1393C21.9331 60.1804 24.0715 52.3605 28.1667 45.5358ZM32.4157 96.1739C26.0951 88.8672 22.4314 79.6375 22.0201 69.9851C49.6449 70.2059 30.3087 68.1057 38.9795 55.6691C44.973 52.1654 49.4788 61.2587 46.8644 66.0958C43.8099 72.5678 58.9467 68.1716 62.4392 69.1795C62.4729 73.6945 62.746 78.0602 62.6086 82.5933C43.5149 76.5677 44.4806 105.729 63.0087 97.5086C62.8857 103.621 63.3995 109.867 63.3779 116.029C33.8238 118.538 48.2942 113.634 32.4157 96.1739ZM65.6803 140.508C58.1771 140.511 48.6215 136.32 47.6695 127.996L83.1465 127.289C82.7933 135.985 73.4847 140.505 65.6803 140.508ZM86.4136 125.711C85.9892 125.493 85.5127 125.399 85.0376 125.438C84.5624 125.477 84.1076 125.647 83.7242 125.931C71.622 126.172 59.5194 126.399 47.415 126.654C47.1637 126.418 46.8508 126.258 46.5123 126.193C46.1739 126.127 45.8238 126.159 45.5025 126.284C42.5464 125.407 41.4987 120.391 43.9507 118.706C57.7304 118.588 71.5127 118.233 85.2889 117.938C85.9893 118.273 86.5963 118.776 87.0562 119.401C87.5162 120.027 87.815 120.756 87.9262 121.524C88.0374 122.293 87.9575 123.077 87.6937 123.807C87.4299 124.537 86.9902 125.191 86.4136 125.711ZM105.116 79.4051C102.649 92.2519 89.8856 99.7646 88.115 112.784C84.3585 119.052 73.378 114.385 66.947 115.968C66.1066 109.307 68.1073 101.32 65.6313 95.2891C65.0501 95.0492 64.4197 94.9528 63.7934 95.0079C63.1671 95.063 62.5633 95.268 62.0329 95.6057C51.1328 101.61 47.3418 81.2055 59.8847 84.641C69.7423 89.1169 65.3181 74.6614 66.0187 69.3898C70.0087 69.5552 74.6516 68.8137 78.5224 69.1406C78.3108 70.1403 78.0124 71.1197 77.6306 72.0676C73.963 90.0441 102.331 85.0439 94.1132 68.847C104.699 68.3373 109.05 66.818 105.116 79.4051Z" fill="black" fill-opacity="0.8"/>
<path d="M117.214 49.8457C116.946 49.8207 116.693 49.7079 116.496 49.5247C116.298 49.3416 116.166 49.0983 116.121 48.8327C116.076 48.5671 116.119 48.2939 116.245 48.0556C116.371 47.8172 116.571 47.627 116.816 47.5145L130.968 41.0089C131.22 40.8925 131.505 40.8657 131.775 40.9328C132.045 41 132.284 41.157 132.453 41.3782C132.622 41.5995 132.71 41.8718 132.703 42.1501C132.697 42.4284 132.595 42.6962 132.416 42.9092L129.836 45.9789L131.142 45.3774C131.288 45.3021 131.449 45.2573 131.614 45.2457C131.778 45.2341 131.944 45.256 132.1 45.3099C132.256 45.3639 132.399 45.4489 132.522 45.5597C132.644 45.6706 132.743 45.805 132.812 45.955C132.881 46.105 132.919 46.2674 132.923 46.4324C132.928 46.5975 132.899 46.7617 132.839 46.9154C132.778 47.069 132.687 47.2088 132.571 47.3264C132.456 47.4439 132.317 47.5368 132.164 47.5995L125.884 50.48C125.632 50.5954 125.348 50.6216 125.078 50.5543C124.809 50.487 124.571 50.3301 124.402 50.1095C124.234 49.8889 124.145 49.6175 124.151 49.34C124.157 49.0625 124.258 48.7953 124.435 48.5822L127.018 45.5126L117.835 49.7312C117.641 49.8229 117.427 49.8624 117.214 49.8457Z" fill="#5A4FF5" fill-opacity="0.8"/>
<path d="M107.384 63.6527C107.145 63.6309 106.917 63.5391 106.729 63.3888C106.542 63.2384 106.403 63.0361 106.329 62.8072C106.256 62.5783 106.252 62.3328 106.317 62.1014C106.382 61.87 106.514 61.6629 106.696 61.506L108.789 59.7016L104.407 61.7136C104.141 61.8333 103.84 61.8538 103.56 61.7714C103.28 61.6889 103.038 61.5091 102.879 61.2642C102.72 61.0193 102.654 60.7256 102.692 60.436C102.73 60.1465 102.871 59.8802 103.089 59.6853L108.317 55.0816L102.232 57.8696C101.946 57.9985 101.621 58.0126 101.325 57.9091C101.029 57.8056 100.784 57.5923 100.641 57.3133C100.497 57.0344 100.466 56.7109 100.554 56.4098C100.642 56.1087 100.843 55.8529 101.114 55.6952L106.599 52.5588L102.273 54.5465C101.985 54.6796 101.657 54.6958 101.357 54.5917C101.058 54.4876 100.81 54.2712 100.667 53.9883C100.524 53.7053 100.496 53.3778 100.59 53.0747C100.683 52.7717 100.89 52.5167 101.168 52.3635L102.939 51.3799C102.705 51.3976 102.47 51.3481 102.262 51.2374C102.055 51.1267 101.883 50.9592 101.768 50.7546C101.618 50.4849 101.576 50.1687 101.649 49.8692C101.723 49.5697 101.906 49.3089 102.164 49.139L115.212 40.5834L99.1013 47.9886C98.8141 48.1167 98.4887 48.1294 98.1924 48.024C97.8961 47.9186 97.6517 47.7033 97.51 47.4226C97.3682 47.1419 97.3398 46.8174 97.4308 46.5164C97.5218 46.2154 97.7251 45.961 97.9986 45.8058L98.5741 45.488L94.1372 47.5343C93.8522 47.6644 93.5283 47.6803 93.2319 47.5787C92.9356 47.4772 92.6895 47.2659 92.5442 46.9883C92.399 46.7108 92.3656 46.3882 92.451 46.0868C92.5365 45.7854 92.7342 45.5283 93.0035 45.3683L105.751 37.8519L88.5809 45.7536C88.2943 45.8844 87.9683 45.8997 87.6707 45.7963C87.3731 45.6929 87.1268 45.4787 86.9831 45.1983C86.8394 44.9179 86.8094 44.5929 86.8992 44.2909C86.989 43.9889 87.1918 43.7332 87.4654 43.577L100.143 36.3663L88.6691 41.6333C88.4161 41.7494 88.1311 41.7758 87.8611 41.7082C87.5911 41.6406 87.3522 41.483 87.1838 41.2614C87.0154 41.0398 86.9275 40.7675 86.9346 40.4892C86.9418 40.211 87.0436 39.9435 87.2232 39.7308L90.9214 35.3684L89.1748 36.1699C88.9504 36.2727 88.7001 36.3054 88.4568 36.2635C88.2135 36.2216 87.9886 36.1071 87.8115 35.9351C87.6345 35.763 87.5136 35.5415 87.4647 35.2995C87.4158 35.0575 87.4412 34.8064 87.5376 34.5791L88.5756 32.143C88.3558 32.0513 88.1675 31.8975 88.0338 31.7004C87.9 31.5033 87.8267 31.2715 87.8227 31.0334C87.8188 30.7952 87.8844 30.5611 88.0115 30.3597C88.1386 30.1583 88.3218 29.9983 88.5384 29.8994L90.2158 29.1284C90.4402 29.0255 90.6905 28.9929 90.9338 29.0348C91.1771 29.0767 91.402 29.1912 91.5791 29.3632C91.7561 29.5353 91.8771 29.7568 91.9259 29.9988C91.9748 30.2408 91.9494 30.4919 91.853 30.7192L91.0427 32.611L94.9162 30.832C95.1691 30.7159 95.4541 30.6894 95.7241 30.757C95.9942 30.8246 96.2331 30.9822 96.4015 31.2038C96.5699 31.4254 96.6578 31.6978 96.6506 31.976C96.6435 32.2543 96.5417 32.5218 96.3621 32.7344L92.6554 37.1083L124.86 22.3037C125.147 22.1728 125.473 22.1575 125.77 22.261C126.068 22.3644 126.314 22.5786 126.458 22.859C126.601 23.1393 126.632 23.4643 126.542 23.7663C126.452 24.0683 126.249 24.324 125.975 24.4803L113.295 31.6932L126.652 25.5588C126.937 25.4287 127.261 25.4128 127.557 25.5143C127.854 25.6159 128.1 25.8272 128.245 26.1047C128.39 26.3822 128.424 26.7049 128.338 27.0063C128.253 27.3076 128.055 27.5648 127.786 27.7248L115.038 35.2388L128.226 29.1772C128.514 29.0468 128.841 29.0328 129.139 29.138C129.437 29.2433 129.683 29.4596 129.825 29.7419C129.967 30.0241 129.994 30.3503 129.901 30.6523C129.808 30.9543 129.602 31.2086 129.326 31.3622L128.751 31.68L129.056 31.5387C129.336 31.4125 129.654 31.3961 129.945 31.4928C130.237 31.5895 130.481 31.7923 130.63 32.0609C130.779 32.3295 130.822 32.6443 130.75 32.9429C130.677 33.2414 130.495 33.5018 130.24 33.6725L117.186 42.2301L130.286 36.2144C130.573 36.0882 130.897 36.0766 131.192 36.1821C131.487 36.2875 131.73 36.502 131.872 36.7813C132.013 37.0606 132.042 37.3836 131.953 37.6838C131.864 37.9839 131.663 38.2385 131.392 38.395L130.412 38.9383L130.73 38.7957C131.016 38.6669 131.34 38.6527 131.637 38.7562C131.933 38.8598 132.178 39.073 132.321 39.352C132.465 39.631 132.496 39.9544 132.408 40.2556C132.319 40.5567 132.119 40.8125 131.848 40.9702L116.41 49.7806L116.432 49.8072C116.593 50.054 116.659 50.3503 116.619 50.6419C116.579 50.9335 116.435 51.2009 116.213 51.395L110.988 55.9989L115.64 53.862C115.907 53.7406 116.21 53.7195 116.491 53.8026C116.773 53.8857 117.016 54.0674 117.175 54.3146C117.334 54.5617 117.399 54.8579 117.357 55.1488C117.316 55.4398 117.172 55.7062 116.95 55.8994L114.768 57.7841C115.038 57.7315 115.317 57.771 115.561 57.8963C115.806 58.0216 116.001 58.2254 116.115 58.4749C116.25 58.7694 116.263 59.1053 116.151 59.4092C116.039 59.7131 115.811 59.9602 115.517 60.0963L108.016 63.5468C107.819 63.6388 107.6 63.6755 107.384 63.6527Z" fill="#5A4FF5" fill-opacity="0.8"/>
<path d="M102.421 30.7306C102.174 30.7077 101.939 30.6099 101.748 30.4502C101.558 30.2906 101.42 30.0766 101.354 29.8368C101.288 29.5971 101.296 29.3429 101.378 29.108C101.46 28.8732 101.612 28.669 101.813 28.5224L109.686 22.7854L104.805 25.0361C104.536 25.1617 104.229 25.1847 103.944 25.1011C103.659 25.0174 103.413 24.8327 103.254 24.5814C103.095 24.3302 103.033 24.0296 103.079 23.7358C103.125 23.4421 103.277 23.1752 103.506 22.985L109.243 18.1951L103.1 21.0047C102.83 21.1251 102.526 21.1438 102.243 21.0574C101.961 20.9711 101.719 20.7855 101.563 20.5349C101.406 20.2843 101.346 19.9857 101.392 19.6939C101.439 19.4022 101.589 19.1372 101.816 18.9477L105.731 15.7391L99.4072 18.6449C99.1443 18.7654 98.8473 18.7889 98.5688 18.7113C98.2903 18.6337 98.0482 18.4601 97.8854 18.2211C97.7227 17.9821 97.6498 17.6932 97.6796 17.4056C97.7095 17.118 97.8402 16.8503 98.0486 16.6498L103.158 11.7573L90.9288 17.3769C90.6507 17.5036 90.3353 17.5218 90.0445 17.4278C89.7537 17.3338 89.5086 17.1344 89.3573 16.8689C89.2061 16.6033 89.1596 16.2908 89.227 15.9928C89.2945 15.6947 89.471 15.4327 89.7218 15.2581L93.4434 12.6806L91.273 13.6762C91.015 13.7908 90.7254 13.8127 90.4531 13.7383C90.1809 13.6639 89.9427 13.4976 89.779 13.2677C89.6152 13.0378 89.5359 12.7584 89.5545 12.4768C89.5731 12.1951 89.6884 11.9286 89.881 11.7222L94.1071 7.34255L91.7621 8.41782C91.517 8.52856 91.2423 8.55553 90.9804 8.49457C90.7185 8.43361 90.484 8.28811 90.313 8.08054C90.1421 7.87298 90.0442 7.6149 90.0346 7.34617C90.0249 7.07744 90.104 6.81301 90.2597 6.59372L91.3935 4.97794C91.2213 4.93079 91.0615 4.84653 90.9252 4.73106C90.789 4.6156 90.6797 4.47172 90.6049 4.30953C90.4693 4.01454 90.4565 3.67776 90.5692 3.37329C90.6819 3.06882 90.9109 2.82159 91.2059 2.68599L94.1343 1.34039C94.3781 1.22964 94.6515 1.20188 94.9125 1.26137C95.1736 1.32086 95.408 1.46432 95.5798 1.66977C95.7515 1.87521 95.8512 2.13131 95.8635 2.39881C95.8757 2.66631 95.8 2.93046 95.6478 3.15078L94.8358 4.31947L98.9971 2.40743C99.2563 2.2879 99.5492 2.26272 99.825 2.33625C100.101 2.40977 100.342 2.57737 100.508 2.81007C100.673 3.04277 100.752 3.32593 100.73 3.61059C100.709 3.89525 100.589 4.1635 100.391 4.36896L96.1532 8.7402L105.105 4.62551C105.384 4.49611 105.701 4.47603 105.993 4.56925C106.286 4.66247 106.532 4.86218 106.684 5.1288C106.837 5.39543 106.883 5.70949 106.815 6.00875C106.746 6.308 106.568 6.5706 106.315 6.74449L102.593 9.32199L108.758 6.48979C109.021 6.36935 109.318 6.34583 109.596 6.42341C109.875 6.501 110.117 6.67467 110.28 6.91367C110.443 7.15266 110.515 7.44155 110.486 7.72915C110.456 8.01675 110.325 8.28449 110.117 8.48495L105.005 13.3748L113.376 9.52825C113.646 9.40792 113.95 9.3892 114.232 9.47554C114.515 9.56188 114.757 9.74746 114.913 9.99804C115.07 10.2486 115.13 10.5473 115.084 10.839C115.037 11.1307 114.887 11.3958 114.66 11.5853L110.746 14.799L116.534 12.1407C116.803 12.0152 117.109 11.9921 117.395 12.0758C117.68 12.1595 117.925 12.3442 118.084 12.5954C118.244 12.8467 118.306 13.1472 118.26 13.441C118.213 13.7348 118.062 14.0017 117.833 14.1918L112.106 18.9778L119.812 15.4357C120.088 15.3083 120.402 15.2881 120.692 15.379C120.982 15.4699 121.228 15.6654 121.381 15.9275C121.535 16.1897 121.586 16.4997 121.524 16.7972C121.462 17.0947 121.291 17.3585 121.045 17.5372L113.18 23.2701L122.633 18.9242C122.927 18.7911 123.263 18.78 123.565 18.8932C123.868 19.0064 124.114 19.2348 124.249 19.5285C124.384 19.8223 124.397 20.1575 124.286 20.461C124.175 20.7645 123.948 21.0117 123.655 21.1487L103.046 30.6215C102.852 30.7133 102.636 30.751 102.421 30.7306Z" fill="#5A4FF5" fill-opacity="0.8"/>
<path d="M129.728 27.7964C124.371 15.0502 103.425 -4.45712 89.8116 3.93526C89.0321 8.39503 88.5772 12.9055 88.4505 17.4311C88.7015 18.8044 89.8003 19.0984 91.0648 19.0389C101.837 13.9649 107.817 30.2484 96.1566 31.0474C93.8765 30.764 88.3578 26.8352 87.1743 31.1782C86.858 35.6363 85.3801 41.0044 86.3822 45.3786C90.1565 48.8697 97.0787 46.6981 101.708 48.1098C91.0631 67.1181 124.053 68.7751 116.935 49.5261C138.279 54.4277 135.277 43.3784 129.728 27.7964ZM129.69 48.9839C101 44.5375 122.343 53.2183 110.564 61.6265C105.092 63.0355 102.603 56.6222 103.652 52.4314C104.168 50.3745 107.01 47.3341 103.641 46.5684C88.6314 45.4648 88.7898 46.9082 90.5533 31.3056C108.221 39.8192 112.293 11.3401 92.3237 17.3217C91.7311 13.1184 92.9104 8.81922 93.1879 4.69929C94.2349 1.37386 99.7351 5.07958 102.171 5.45861C119.231 11.9362 131.684 30.8553 129.69 48.9839Z" fill="black" fill-opacity="0.8"/>
</g>
<defs>
<clipPath id="clip0_261_24">
<rect width="144" height="144" fill="white"/>
</clipPath>
</defs>
</svg>
